<svg id="circle-text01" xmlns="http://www.w3.org/2000/svg" xmlns:xlink="http://www.w3.org/1999/xlink" width="586.174" height="588.302" viewBox="0 0 586.174 588.302">
  <defs>
    <clipPath id="clip-path">
      <rect id="長方形_75642" data-name="長方形 75642" width="586.174" height="588.302" fill="#e6eff7"/>
    </clipPath>
  </defs>
  <g id="グループ_222" data-name="グループ 222" clip-path="url(#clip-path)">
    <path id="パス_43966" data-name="パス 43966" d="M560.4,162.557q-2.879-1.272-7.8-.494c-.095-.008-.185-.122-.271-.34s-.071-.351.049-.4q1.758-.421,5.627-1.606t5.772-1.938c.2-.078.345,0,.439.239s.042.4-.156.475q-1.311.519-.015,3.791,1.847,5.188,4.551,12.034,1.389,3.51,3.061,7.392l1.661,4.024a13.4,13.4,0,0,0,1.567,3.1,1.95,1.95,0,0,0,1.709.838c.174-.023.3.074.391.293s.049.359-.109.422q-1.738.48-5.509,1.731t-5.974,2.122c-.12.047-.221-.04-.307-.257s-.072-.351.047-.4q4.418-2.229,5.635-4.982t-.312-6.62a13.959,13.959,0,0,0-1.515-3.049,2.084,2.084,0,0,0-1.53-.909,6.631,6.631,0,0,0-2.611.619l-27.437,10.85a7.284,7.284,0,0,0-2.524,1.446,2.3,2.3,0,0,0-.532,1.965,16.961,16.961,0,0,0,1.138,3.748c.032.079-.07.166-.31.26s-.372.1-.4.022q-.825-2.083-1.235-3.3l-1.8-4.725-1.872-4.559q-.532-1.167-1.378-3.31-.07-.179.286-.319c.238-.1.381-.082.428.037a17.04,17.04,0,0,0,1.721,3.483,2.412,2.412,0,0,0,1.786,1.118,6.862,6.862,0,0,0,2.811-.63l27.557-10.9a6.4,6.4,0,0,0,2.268-1.31,2,2,0,0,0,.453-1.727,16.167,16.167,0,0,0-1.021-3.279,8.454,8.454,0,0,0-4.336-4.961" fill="#e6eff7"/>
    <path id="パス_43967" data-name="パス 43967" d="M541.876,216.7a12.252,12.252,0,0,1,3.767-5.465,14.731,14.731,0,0,1,6.207-3.086,11.971,11.971,0,0,1,7.354.359,12.654,12.654,0,0,1,5.447,4.1,15.753,15.753,0,0,1,2.909,6.018,12.028,12.028,0,0,1-.268,6.9,12.353,12.353,0,0,1-3.744,5.428,14.082,14.082,0,0,1-5.9,2.981,12.709,12.709,0,0,1-12.838-4.057,14.622,14.622,0,0,1-3.169-6.285,12.167,12.167,0,0,1,.237-6.9m4.942,12.641q2.828,1.1,7.746-.063a19.644,19.644,0,0,0,6.811-2.9,11.2,11.2,0,0,0,3.91-4.447,7.735,7.735,0,0,0,.528-5.124,5.57,5.57,0,0,0-3.453-4.148q-2.725-1.095-7.271-.015a20.975,20.975,0,0,0-6.849,2.876,12.492,12.492,0,0,0-4.269,4.466,7.121,7.121,0,0,0-.72,5.137,5.64,5.64,0,0,0,3.567,4.219" fill="#e6eff7"/>
    <path id="パス_43968" data-name="パス 43968" d="M531.559,251.09a6.167,6.167,0,0,1,4.855-3.059q5.481-.513,11.554,8.043l-.7.773a13.434,13.434,0,0,0-3.44-3.791,6.509,6.509,0,0,0-4.464-.995,7.2,7.2,0,0,0-5.4,2.789,8.787,8.787,0,0,0-1.468,6.276,9.534,9.534,0,0,0,2.844,6.322,7.635,7.635,0,0,0,6.226,1.954,5.246,5.246,0,0,0,3.709-1.569,5.684,5.684,0,0,0,1.228-3.361,37.815,37.815,0,0,0-.205-5.606,25.773,25.773,0,0,1,.224-7.542,3.613,3.613,0,0,1,3.552-2.9,6.189,6.189,0,0,1,4.018,1.036,18.434,18.434,0,0,1,4.1,3.923l-.443.749a8.473,8.473,0,0,0-2.269-1.908,4.109,4.109,0,0,0-2.322-.426,2.783,2.783,0,0,0-2.685,2.213,23.194,23.194,0,0,0-.052,6.979,47.63,47.63,0,0,1,.154,5.74,7.787,7.787,0,0,1-1.386,4.083,5.544,5.544,0,0,1-4.331,2.142,10.843,10.843,0,0,1-6.739-1.617,15.809,15.809,0,0,1-5.365-5.442,17.69,17.69,0,0,1-2.516-7.639,11.258,11.258,0,0,1,1.32-7.163M557.43,252.1a8.342,8.342,0,0,1,2.771-3.7,7.935,7.935,0,0,1,4.062-1.57,7.062,7.062,0,0,1,6.179,2.473,12.208,12.208,0,0,1,2.964,7.275,11.271,11.271,0,0,1-.653,5.364,8.18,8.18,0,0,1-2.683,3.6,7.565,7.565,0,0,1-3.846,1.487,7.194,7.194,0,0,1-4.4-.97,9.668,9.668,0,0,1-3.412-3.473,12.044,12.044,0,0,1-1.641-5.148,11.332,11.332,0,0,1,.657-5.333m2.247,9.559a6.933,6.933,0,0,0,4.575.792,9.411,9.411,0,0,0,6.089-2.564,6.034,6.034,0,0,0,1.885-4.934,3.689,3.689,0,0,0-1.658-2.929,6.684,6.684,0,0,0-4.274-.692,11.21,11.21,0,0,0-4.69,1.4,7.867,7.867,0,0,0-2.891,2.747,5.212,5.212,0,0,0-.794,3.192,3.884,3.884,0,0,0,1.758,2.984m14.016,4.47a10.83,10.83,0,0,1,1.109,3.945c.013.128-.138.239-.451.332a5.349,5.349,0,0,1-1.042.195,7.772,7.772,0,0,1-1.707-.034q-.879-.109-.774-.376a11.217,11.217,0,0,0,.607-4.493,10.293,10.293,0,0,0-.792-2.947l-1.64-.36,2.109-.134a23.231,23.231,0,0,1,2.581,3.872" fill="#e6eff7"/>
    <path id="パス_43969" data-name="パス 43969" d="M550.508,287.059a10.945,10.945,0,0,1,4.677-4.009,13.661,13.661,0,0,1,19.4,12.992,8.043,8.043,0,0,1-2.076,5.7,7.114,7.114,0,0,1-5.469,1.807q-1.792-.059-1.766-.826l.144-4.413a9.78,9.78,0,0,0,5.821-.8,4.116,4.116,0,0,0,2.138-3.676,5.562,5.562,0,0,0-2.5-4.98,13.009,13.009,0,0,0-7.2-2q-5.629-.184-9.04,2.3a8.817,8.817,0,0,0-3.567,7.28,9.51,9.51,0,0,0,.375,3.214,20.227,20.227,0,0,0,1.4,3.183l0,.065a.442.442,0,0,1-.235.343.339.339,0,0,1-.417.019,16.047,16.047,0,0,1-2.823-4.7,13.236,13.236,0,0,1-.765-5.02,12.2,12.2,0,0,1,1.908-6.47m16.222-1.647-.212,14.337-1.151-.037.4-14.267Z" fill="#e6eff7"/>
    <path id="パス_43970" data-name="パス 43970" d="M547.613,319.412a4.71,4.71,0,0,1,4.417-1.178l14.619,2.207a4.543,4.543,0,0,0,2.939-.171,3.953,3.953,0,0,0,1.038-2.594q.029-.189.535-.114.442.067.415.257a7.6,7.6,0,0,0,.682,4.7,6,6,0,0,0,3.241,2.754q.18.092.113.536c-.045.295-.13.433-.257.414l-21.832-3.3q-5-.756-5.735,4.118a8.054,8.054,0,0,0,1.016,5.267.26.26,0,0,1,.036.2c-.02.127-.121.218-.3.278s-.306.019-.37-.121a19.487,19.487,0,0,1-2.2-4.732,10.013,10.013,0,0,1-.264-4.248,7.8,7.8,0,0,1,1.907-4.275m21.624,4.462,1.456.22a99.783,99.783,0,0,0-.877,10.094q-.028.189-.491.249a3.658,3.658,0,0,1-1.031-.026,3.335,3.335,0,0,1-1.079-.356c-.34-.181-.476-.354-.408-.515a45.748,45.748,0,0,0,2.43-9.666" fill="#e6eff7"/>
    <path id="パス_43971" data-name="パス 43971" d="M539.241,357.647c.246.07.357.146.335.228q-.652,2.277-.026,3.223t3.212,1.686l9.474,2.715q3.568,1.023,5.671.2a5.028,5.028,0,0,0,2.894-3.6,8.95,8.95,0,0,0-.039-4.738,11.837,11.837,0,0,0-2.387-4.679l.826-.1a21.5,21.5,0,0,1,3.721,6.76,10.653,10.653,0,0,1,.11,6.123,7.1,7.1,0,0,1-3.468,4.665,8.191,8.191,0,0,1-6.128.24l-11.873-3.4q-2.584-.74-3.625-.24t-1.7,2.776c-.035.123-.176.15-.422.079s-.352-.167-.316-.29q.439-1.539.749-2.382l1.032-3.366.943-3.524q.186-.88.609-2.356c.023-.083.158-.088.4-.017m4.744-16.55c.246.071.357.146.334.229q-.654,2.275-.025,3.222t3.212,1.687l31.623,9.063a9.293,9.293,0,0,0,3.282.509,1.5,1.5,0,0,0,1.368-1.173,6.95,6.95,0,0,0-.023-2.936l.017-.062a.416.416,0,0,1,.413-.28c.229-.025.366.038.413.184l1.574,9.373-.052.185a.727.727,0,0,1-.317.408.571.571,0,0,1-.491.092l-39.007-11.18q-2.583-.741-3.626-.241t-1.694,2.777q-.053.184-.422.079c-.246-.071-.35-.167-.316-.29q.441-1.541.749-2.382l1.032-3.367.942-3.524q.186-.881.61-2.355c.023-.083.159-.088.4-.018" fill="#e6eff7"/>
    <path id="パス_43972" data-name="パス 43972" d="M530.5,383.874a10.923,10.923,0,0,1,5.841-1.96,13.658,13.658,0,0,1,13.1,19.321,8.045,8.045,0,0,1-4.061,4.5,7.114,7.114,0,0,1-5.747-.379q-1.64-.726-1.328-1.429l1.79-4.036a9.782,9.782,0,0,0,5.7,1.441,4.113,4.113,0,0,0,3.36-2.605,5.563,5.563,0,0,0-.442-5.553,13.028,13.028,0,0,0-5.927-4.553q-5.149-2.285-9.241-1.263a8.814,8.814,0,0,0-6.039,5.407,9.562,9.562,0,0,0-.86,3.12,20.3,20.3,0,0,0,.1,3.477l-.026.058a.44.44,0,0,1-.347.231.343.343,0,0,1-.394-.139,16,16,0,0,1-.851-5.419,13.232,13.232,0,0,1,1.174-4.939,12.2,12.2,0,0,1,4.2-5.28m15.654,4.562-5.578,13.209-1.053-.467,5.728-13.072Z" fill="#e6eff7"/>
    <path id="パス_43973" data-name="パス 43973" d="M518.13,408.474c.22.132.3.252.232.362a6.226,6.226,0,0,0-.931,2.241,1.937,1.937,0,0,0,.539,1.59,10.031,10.031,0,0,0,2.241,1.677l10.709,6.409a7.061,7.061,0,0,0,2.855,1.15,1.688,1.688,0,0,0,1.634-.924,10.664,10.664,0,0,0,.973-3.371l.067-.11c.065-.11.206-.137.421-.083s.31.148.281.28l-.8,8.694-.142.362c-.218.366-.875.484-1.965.354a9.748,9.748,0,0,1-3.722-1.445l-12.575-7.527a6.268,6.268,0,0,0-2.636-1.017,2.633,2.633,0,0,0-2,.852,15.551,15.551,0,0,0-2.274,3.114c-.066.111-.208.1-.428-.032s-.3-.252-.231-.362q1.085-1.812,1.8-2.877l2.553-4.142,1.785-3.107q.406-.8,1.194-2.12c.066-.11.208-.1.428.032m13.882,22.293a5.968,5.968,0,0,1-.506,3.837,4.838,4.838,0,0,1-2.154,1.918,2.494,2.494,0,0,1-2.443.03,2.245,2.245,0,0,1-.76-3.215,2.093,2.093,0,0,1,.839-.841,12.87,12.87,0,0,1,1.333-.544,8.06,8.06,0,0,0,1.255-.479,2.134,2.134,0,0,0,.795-.83,3.332,3.332,0,0,0,.24-2.206,38.857,38.857,0,0,0-1.51-5.267l.8.032a41.653,41.653,0,0,1,2.11,7.565" fill="#e6eff7"/>
    <path id="パス_43974" data-name="パス 43974" d="M495.132,477.718a2.536,2.536,0,0,0,2.006-.812c.061-.061.181,0,.363.178s.245.3.185.36q-.806.822-1.345,1.28l-2.017,1.965-2.913,3.061q-.627.729-1.7,1.827c-.09.091-.225.047-.408-.132s-.229-.314-.14-.406q2.376-2.422,1.279-3.5a2.154,2.154,0,0,0-.865-.489l-17.39-5.851-.944-4.064,7.547,17.622a5.269,5.269,0,0,0,1.1,1.709q2.01,1.971,5.326-1.409c.09-.091.227-.047.409.131s.229.315.14.407q-1.21,1.233-1.839,1.783l-2.734,2.7-1.658,1.781q-.4.5-1.388,1.507c-.089.092-.226.048-.408-.132s-.23-.314-.14-.406a3.934,3.934,0,0,0,1.172-2.84,12.066,12.066,0,0,0-1.106-4.356l-7.922-18.886c-.091-.149.012-.378.31-.682s.525-.413.676-.323l20.252,6.954a19.643,19.643,0,0,0,4.151,1.024m10.755-11.012a3.073,3.073,0,0,0,2.186-.948q.133-.138.409.132c.182.178.228.314.139.4q-.851.868-1.39,1.326l-2.153,2.1-2.867,3.014q-.627.73-1.791,1.918-.135.138-.409-.131c-.183-.179-.229-.315-.14-.406q2.511-2.559,1.459-3.59a2.471,2.471,0,0,0-.955-.488l-17.479-5.76-.9-4.109,7.133,16.766-1.262.556-7.413-17.669q-.135-.225.311-.682t.676-.324l20.3,6.909a13.327,13.327,0,0,0,4.15.978" fill="#e6eff7"/>
    <path id="パス_43975" data-name="パス 43975" d="M453.157,485.6c.156.2.182.342.081.421q-1.877,1.44-1.936,2.575t1.579,3.265l7.209,9.393a8.459,8.459,0,0,0,2.324,2.291,1.608,1.608,0,0,0,1.872-.188,6.871,6.871,0,0,0,1.678-2.335l.05-.039q.2-.156.519.045c.21.134.262.27.152.409l-4.451,8.5-.163.207a.671.671,0,0,1-.446.1.58.58,0,0,1-.452-.219q-.271-.355-1.507-2.07t-2.989-4l-7.248-9.443q-1.636-2.133-2.747-2.369t-2.988,1.2c-.1.078-.23.015-.386-.188s-.183-.344-.082-.422q1.219-.935,2.02-1.468l2.831-2.093,2.753-2.194q.722-.635,1.941-1.571c.1-.078.23-.014.386.189M470.4,513.789a2.937,2.937,0,0,1,2.068,1.275,2.757,2.757,0,0,1,.64,2.253,3.384,3.384,0,0,1-1.386,2.032,3.057,3.057,0,0,1-2.218.735,2.878,2.878,0,0,1-1.96-1.239,3.152,3.152,0,0,1-.775-2.27,2.965,2.965,0,0,1,1.29-2,3.3,3.3,0,0,1,2.341-.787" fill="#e6eff7"/>
    <path id="パス_43976" data-name="パス 43976" d="M430.065,502.21a4.713,4.713,0,0,1,3.757,2.605L441.6,517.39q1.179,1.9,2.033,2.129a3.946,3.946,0,0,0,2.649-.887c.109-.067.253.044.433.335.157.253.181.415.072.481a7.622,7.622,0,0,0-3.141,3.561,6.019,6.019,0,0,0,0,4.254c.033.131-.08.275-.334.432s-.415.182-.482.073l-11.614-18.779q-2.661-4.3-6.851-1.708A8.055,8.055,0,0,0,421,511.465a.266.266,0,0,1-.13.156.375.375,0,0,1-.406-.05q-.245-.15-.148-.36a19.518,19.518,0,0,1,2.186-4.738,10.007,10.007,0,0,1,3.067-2.951,7.8,7.8,0,0,1,4.493-1.312m10.591,19.374.774,1.252a99.824,99.824,0,0,0-8.263,5.863c-.109.068-.278,0-.508-.213a3.757,3.757,0,0,1-.648-.8,3.389,3.389,0,0,1-.425-1.054c-.082-.376-.038-.591.129-.645a45.688,45.688,0,0,0,8.941-4.4" fill="#e6eff7"/>
    <path id="パス_43977" data-name="パス 43977" d="M395.473,520.587c.106.233.121.367.042.4q-2.157.975-2.472,2.066t.794,3.54l4.063,8.98q1.53,3.381,3.523,4.447a5.025,5.025,0,0,0,4.616-.122,8.958,8.958,0,0,0,3.586-3.1,11.851,11.851,0,0,0,2.02-4.847l.609.567a21.545,21.545,0,0,1-2.743,7.212,10.65,10.65,0,0,1-4.6,4.047,7.1,7.1,0,0,1-5.8.377,8.2,8.2,0,0,1-4.15-4.515l-5.092-11.254q-1.109-2.448-2.164-2.92t-3.213.506c-.117.053-.229-.037-.334-.27s-.1-.376.017-.429q1.458-.66,2.3-.971l3.234-1.392,3.3-1.563q.791-.429,2.189-1.06c.079-.036.17.063.275.3m15.686-7.1c.105.232.119.367.041.4q-2.156.977-2.472,2.067t.794,3.54l13.561,29.97a9.314,9.314,0,0,0,1.737,2.832,1.505,1.505,0,0,0,1.779.284,6.945,6.945,0,0,0,2.223-1.919l.059-.027a.418.418,0,0,1,.481.133q.249.239.127.435l-6.125,7.267-.176.079a.712.712,0,0,1-.515.023.573.573,0,0,1-.389-.315l-16.727-36.968q-1.109-2.45-2.164-2.92t-3.213.506q-.176.078-.334-.271c-.105-.233-.1-.377.017-.43q1.459-.658,2.3-.97l3.233-1.393,3.3-1.561q.792-.429,2.19-1.062c.078-.035.169.065.275.3" fill="#e6eff7"/>
    <path id="パス_43978" data-name="パス 43978" d="M343.428,560.3a2.531,2.531,0,0,0,2.1.515c.084-.014.148.1.191.358s.023.385-.061.4q-1.134.195-1.84.251l-2.787.414-4.152.779q-.935.223-2.448.485c-.127.021-.211-.094-.255-.346s0-.389.124-.411q3.344-.574,3.083-2.088a2.144,2.144,0,0,0-.414-.9l-10.68-14.919,1.612-3.849-4.19,18.707a5.259,5.259,0,0,0-.105,2.032q.475,2.773,5.143,1.973c.127-.021.211.094.255.346s0,.39-.124.411q-1.7.293-2.534.37l-3.8.587-2.386.475q-.619.171-2.008.41c-.126.021-.211-.094-.253-.346s0-.39.124-.411a3.944,3.944,0,0,0,2.612-1.617,12.1,12.1,0,0,0,1.652-4.181l4.625-19.95c.014-.175.232-.3.651-.372s.667-.027.737.134l12.355,17.488a19.66,19.66,0,0,0,2.767,3.259m15.165-2.637a3.075,3.075,0,0,0,2.327.509c.127-.022.211.094.256.346s0,.389-.125.411q-1.2.205-1.9.262l-2.976.446-4.089.767q-.936.225-2.575.508c-.127.022-.211-.094-.255-.347s0-.388.125-.411q3.534-.606,3.282-2.056a2.459,2.459,0,0,0-.488-.956l-10.806-14.9,1.675-3.859-4.026,17.77-1.348-.288,4.326-18.666c.014-.175.232-.3.652-.371s.667-.027.736.133L355.8,554.446a13.341,13.341,0,0,0,2.794,3.222" fill="#e6eff7"/>
    <path id="パス_43979" data-name="パス 43979" d="M289.537,542.447c0,.256-.035.385-.122.387q-2.365.038-3.089.914t-.679,3.564l.161,9.854q.06,3.711,1.464,5.482a5.033,5.033,0,0,0,4.285,1.722,8.965,8.965,0,0,0,4.521-1.418,11.864,11.864,0,0,0,3.782-3.645l.332.762a21.568,21.568,0,0,1-5.382,5.529,10.665,10.665,0,0,1-5.827,1.886,7.1,7.1,0,0,1-5.472-1.96,8.2,8.2,0,0,1-2.015-5.792l-.2-12.35q-.042-2.688-.825-3.539t-3.15-.814q-.192,0-.2-.381c0-.255.058-.384.186-.386q1.6-.027,2.5.023l3.52.007,3.647-.123q.894-.079,2.43-.1c.086,0,.13.126.134.382m17.214-.278c0,.256-.036.384-.122.386q-2.365.038-3.089.914t-.679,3.563l.534,32.892a9.308,9.308,0,0,0,.469,3.289,1.507,1.507,0,0,0,1.52.968,6.973,6.973,0,0,0,2.8-.878h.063c.171,0,.3.1.39.313s.069.362-.058.45l-8.508,4.234-.192,0a.729.729,0,0,1-.483-.184.578.578,0,0,1-.231-.444L298.51,547.1q-.045-2.688-.825-3.539t-3.15-.813q-.192,0-.2-.381c-.005-.256.058-.386.185-.388q1.6-.024,2.5.024l3.52.007,3.647-.123q.894-.08,2.43-.1c.086,0,.13.125.134.382" fill="#e6eff7"/>
    <path id="パス_43980" data-name="パス 43980" d="M261.749,541.34a10.938,10.938,0,0,1,3.518,5.058,13.659,13.659,0,0,1-14.881,17.985,8.049,8.049,0,0,1-5.457-2.638,7.112,7.112,0,0,1-1.246-5.624q.238-1.777,1-1.674l4.377.589a9.778,9.778,0,0,0,.211,5.872,4.115,4.115,0,0,0,3.442,2.5,5.561,5.561,0,0,0,5.206-1.981,13.015,13.015,0,0,0,2.712-6.965q.751-5.58-1.375-9.224a8.812,8.812,0,0,0-6.883-4.283,9.549,9.549,0,0,0-3.235.048,20.355,20.355,0,0,0-3.309,1.074l-.063-.009a.444.444,0,0,1-.319-.269.342.342,0,0,1,.024-.417,16.028,16.028,0,0,1,4.963-2.335,13.223,13.223,0,0,1,5.071-.254,12.194,12.194,0,0,1,6.244,2.55m0,16.306-14.242-1.656.153-1.142,14.153,1.838Z" fill="#e6eff7"/>
    <path id="パス_43981" data-name="パス 43981" d="M218.661,531.211q.989.262,1.4,1.931a8.429,8.429,0,0,1-.245,4.142L216.8,548.6a12.66,12.66,0,0,0-.548,5.65,2.985,2.985,0,0,0,2.237,2.419,3.628,3.628,0,0,0,3.47-.6,8.21,8.21,0,0,0,2.174-2.931q1.069-2.763,3.418-2.135a2.562,2.562,0,0,1,1.614,1.028,1.937,1.937,0,0,1,.208,1.579q-.431,1.606-2.829,2.656a16.849,16.849,0,0,1-5.477,1.286,15.834,15.834,0,0,1-5.242-.339,5.168,5.168,0,0,1-3.574-2.743,7.392,7.392,0,0,1-.151-5.14l3.038-11.378q1.072-4.02-1.277-4.647a7.165,7.165,0,0,0-2.9-.046l-.061-.016a.359.359,0,0,1-.266-.369.306.306,0,0,1,.262-.361l7.178-1.33a1.279,1.279,0,0,1,.59.026m14.192,5.146a4.211,4.211,0,0,1,.465,3.47,4.132,4.132,0,0,1-2.5,2.91,22.118,22.118,0,0,1-5.888,1.21l-7.742.715.029-.853,6.238-.786a7.715,7.715,0,0,0,2.939-.838,3.114,3.114,0,0,0,1.53-2.01,3.393,3.393,0,0,0-2.493-4.308,5.593,5.593,0,0,0-2.89.156l-4.258,1.313.107-.9,5.306-1.764a10.649,10.649,0,0,1,3.055-.773,8.091,8.091,0,0,1,2.713.26,5.439,5.439,0,0,1,3.388,2.2" fill="#e6eff7"/>
    <path id="パス_43982" data-name="パス 43982" d="M189.08,545.363l-.547,1.367a99.594,99.594,0,0,0-9.626-3.162c-.119-.048-.161-.226-.131-.535a3.746,3.746,0,0,1,.262-1,3.349,3.349,0,0,1,.6-.969c.253-.289.452-.381.593-.279a45.693,45.693,0,0,0,8.854,4.576m9.29-20.03a4.712,4.712,0,0,1,.136,4.569l-5.492,13.727a4.532,4.532,0,0,0-.505,2.9q.327.82,2.288,1.606c.118.047.114.228-.013.546-.11.277-.226.392-.345.344a7.606,7.606,0,0,0-4.729-.41,6,6,0,0,0-3.423,2.526c-.087.1-.27.1-.547-.012s-.392-.227-.345-.345l8.2-20.5q1.876-4.693-2.7-6.524a8.047,8.047,0,0,0-5.36-.214.266.266,0,0,1-.2-.013c-.119-.047-.186-.166-.2-.356s.051-.3.2-.332a19.5,19.5,0,0,1,5.11-1.058,10.027,10.027,0,0,1,4.195.713,7.813,7.813,0,0,1,3.726,2.835" fill="#e6eff7"/>
    <path id="パス_43983" data-name="パス 43983" d="M169.014,515.582a7.121,7.121,0,0,1,1-4.381,12.974,12.974,0,0,1,3.836-4.5,21.27,21.27,0,0,1,6.021-3.014.263.263,0,0,1,.2.031.375.375,0,0,1,.2.317q.027.231-.147.285a12.428,12.428,0,0,0-3.653,2.543,15.142,15.142,0,0,0-2.4,3.477,7.383,7.383,0,0,0-.907,2.664,4.456,4.456,0,0,0,.331,2.08l-2.367-.718a1.959,1.959,0,0,1,1.275-1.214,2.582,2.582,0,0,1,1.856.31,2.74,2.74,0,0,1,1.5,1.637,2.825,2.825,0,0,1-.285,2.157,2.754,2.754,0,0,1-1.765,1.537,3.586,3.586,0,0,1-2.541-.447,3.749,3.749,0,0,1-2.141-2.761" fill="#e6eff7"/>
    <path id="パス_43984" data-name="パス 43984" d="M121.946,507.748l-.9,1.166a99.647,99.647,0,0,0-8.4-5.659c-.1-.078-.093-.262.021-.55a3.707,3.707,0,0,1,.522-.89,3.343,3.343,0,0,1,.835-.77c.324-.21.54-.245.649-.108a45.737,45.737,0,0,0,7.276,6.811M136.33,491a4.714,4.714,0,0,1-1.11,4.435L126.2,507.147a4.538,4.538,0,0,0-1.274,2.654q.093.877,1.765,2.166c.1.078.048.252-.16.522-.182.236-.324.317-.426.238a7.608,7.608,0,0,0-4.44-1.68,6.008,6.008,0,0,0-3.981,1.5q-.167.113-.522-.16c-.236-.182-.316-.325-.238-.426l13.466-17.5q3.082-4.008-.823-7.013a8.047,8.047,0,0,0-5.1-1.663.264.264,0,0,1-.192-.066.378.378,0,0,1-.1-.4c.037-.187.131-.275.285-.264a19.5,19.5,0,0,1,5.2.371,10,10,0,0,1,3.844,1.827A7.812,7.812,0,0,1,136.33,491" fill="#e6eff7"/>
    <path id="パス_43985" data-name="パス 43985" d="M113.816,472.858a12.259,12.259,0,0,1-.313,6.631,14.753,14.753,0,0,1-3.643,5.9,11.977,11.977,0,0,1-6.436,3.577,12.667,12.667,0,0,1-6.79-.606,15.759,15.759,0,0,1-5.648-3.576,12.021,12.021,0,0,1-3.417-6.006,12.346,12.346,0,0,1,.314-6.585,14.06,14.06,0,0,1,3.439-5.648,12.7,12.7,0,0,1,13.043-3.332,14.612,14.612,0,0,1,6.011,3.665,12.166,12.166,0,0,1,3.44,5.983m-10.87-8.127q-2.985.555-6.546,4.145a19.654,19.654,0,0,0-4.254,6.057,11.212,11.212,0,0,0-.972,5.842,7.727,7.727,0,0,0,2.258,4.63,5.564,5.564,0,0,0,5.12,1.7q2.9-.51,6.186-3.826a21.018,21.018,0,0,0,4.3-6.059,12.489,12.489,0,0,0,1.266-6.046,7.119,7.119,0,0,0-2.1-4.744,5.637,5.637,0,0,0-5.255-1.7" fill="#e6eff7"/>
    <path id="パス_43986" data-name="パス 43986" d="M60.679,447.709a10.861,10.861,0,0,1-3.028-2.763c-.077-.1-.009-.275.207-.52a5.326,5.326,0,0,1,.782-.715,7.735,7.735,0,0,1,1.466-.875q.8-.372.856-.09a11.181,11.181,0,0,0,1.862,4.133,10.324,10.324,0,0,0,2.229,2.083l1.583-.561-1.719,1.228a23.269,23.269,0,0,1-4.238-1.92M81.9,451.015a8.348,8.348,0,0,1-.4,4.6,7.917,7.917,0,0,1-2.617,3.481,7.058,7.058,0,0,1-6.552,1.168,12.206,12.206,0,0,1-6.363-4.605,11.287,11.287,0,0,1-2.283-4.9,8.2,8.2,0,0,1,.377-4.469,7.551,7.551,0,0,1,2.478-3.3,7.191,7.191,0,0,1,4.245-1.5,9.682,9.682,0,0,1,4.732,1.142,12.055,12.055,0,0,1,4.116,3.5,11.335,11.335,0,0,1,2.263,4.873m-6.963-6.925a6.936,6.936,0,0,0-4.3,1.747,9.421,9.421,0,0,0-3.813,5.4,6.027,6.027,0,0,0,1.01,5.184,3.7,3.7,0,0,0,2.956,1.61,6.705,6.705,0,0,0,4-1.674,11.2,11.2,0,0,0,3.237-3.672,7.908,7.908,0,0,0,1-3.86,5.225,5.225,0,0,0-1.015-3.129,3.879,3.879,0,0,0-3.071-1.6m29.455-5.9a6.167,6.167,0,0,1-2.5,5.164q-4.38,3.336-14.06-.716l.184-1.025a13.484,13.484,0,0,0,4.926,1.4,6.5,6.5,0,0,0,4.315-1.516,7.2,7.2,0,0,0,3.105-5.22,8.793,8.793,0,0,0-2.073-6.1,9.537,9.537,0,0,0-5.757-3.862,7.647,7.647,0,0,0-6.318,1.634,5.247,5.247,0,0,0-2.318,3.294,5.687,5.687,0,0,0,.735,3.5,37.907,37.907,0,0,0,3.139,4.649,25.8,25.8,0,0,1,3.8,6.52,3.612,3.612,0,0,1-1.479,4.344,6.2,6.2,0,0,1-3.959,1.245,18.5,18.5,0,0,1-5.55-1.163l-.02-.871a8.455,8.455,0,0,0,2.935.42,4.094,4.094,0,0,0,2.2-.867,2.782,2.782,0,0,0,1.108-3.3,23.271,23.271,0,0,0-3.646-5.951,47.354,47.354,0,0,1-3.165-4.789,7.792,7.792,0,0,1-.985-4.2,5.55,5.55,0,0,1,2.543-4.109,10.861,10.861,0,0,1,6.577-2.192,15.812,15.812,0,0,1,7.43,1.783,17.7,17.7,0,0,1,6.176,5.152,11.255,11.255,0,0,1,2.667,6.777" fill="#e6eff7"/>
    <path id="パス_43987" data-name="パス 43987" d="M69.307,417.694a10.936,10.936,0,0,1-1.857,5.874,13.658,13.658,0,0,1-23.33-.806,8.048,8.048,0,0,1-1.243-5.933,7.12,7.12,0,0,1,3.695-4.419q1.552-.9,1.935-.232l2.206,3.828a9.777,9.777,0,0,0-4.521,3.751,4.116,4.116,0,0,0,.123,4.251,5.562,5.562,0,0,0,4.747,2.915,13.023,13.023,0,0,0,7.172-2.1Q63.113,422,64.7,418.1a8.815,8.815,0,0,0-.81-8.065,9.53,9.53,0,0,0-2.014-2.532,20.172,20.172,0,0,0-2.87-1.965l-.032-.056a.447.447,0,0,1,.019-.417.34.34,0,0,1,.344-.235,16.013,16.013,0,0,1,4.88,2.505,13.246,13.246,0,0,1,3.3,3.86,12.188,12.188,0,0,1,1.791,6.5M56.4,427.652l-7.383-12.291,1-.575,7.185,12.331Z" fill="#e6eff7"/>
    <path id="パス_43988" data-name="パス 43988" d="M54.717,388.689a4.708,4.708,0,0,1-3.134,3.327L37.994,397.84q-2.058.882-2.407,1.693a3.938,3.938,0,0,0,.482,2.752c.05.118-.081.243-.4.378-.273.117-.437.118-.487,0a7.615,7.615,0,0,0-3.055-3.635,6.011,6.011,0,0,0-4.2-.635c-.135.012-.26-.12-.378-.394s-.118-.438,0-.487l20.294-8.7q4.65-1.99,2.706-6.52a8.05,8.05,0,0,0-3.638-3.942.261.261,0,0,1-.134-.151.379.379,0,0,1,.108-.395q.186-.217.379-.092a19.467,19.467,0,0,1,4.363,2.866,10.03,10.03,0,0,1,2.462,3.471,7.8,7.8,0,0,1,.628,4.638m-20.731,7.6-1.354.579a99.722,99.722,0,0,0-4.57-9.042c-.052-.118.046-.274.285-.471a3.722,3.722,0,0,1,.892-.52,3.336,3.336,0,0,1,1.1-.265q.578-.038.619.223a45.665,45.665,0,0,0,3.024,9.5" fill="#e6eff7"/>
    <path id="パス_43989" data-name="パス 43989" d="M46.378,368.332q-.369.107-.4-.018-.642-2.278-1.674-2.752t-3.619.257L9.023,374.76a9.319,9.319,0,0,0-3.059,1.3,1.505,1.505,0,0,0-.546,1.717,6.916,6.916,0,0,0,1.566,2.484l.018.062a.418.418,0,0,1-.2.456c-.182.14-.331.16-.449.06L.077,373.7l-.053-.185A.734.734,0,0,1,.079,373a.577.577,0,0,1,.37-.336L39.5,361.63q2.586-.729,3.209-1.7t-.021-3.253c-.035-.123.071-.22.318-.289s.386-.043.422.08q.435,1.542.616,2.42l.9,3.4,1.053,3.495q.306.845.723,2.322c.023.083-.088.158-.335.227M41.7,351.765q-.369.1-.4-.019-.643-2.277-1.676-2.752T36,349.251l-9.485,2.679q-3.57,1.008-4.922,2.82a5.028,5.028,0,0,0-.569,4.582,8.964,8.964,0,0,0,2.529,4.008,11.844,11.844,0,0,0,4.493,2.722l-.653.516a21.538,21.538,0,0,1-6.721-3.787,10.65,10.65,0,0,1-3.317-5.148,7.1,7.1,0,0,1,.492-5.792,8.194,8.194,0,0,1,5.083-3.431l11.887-3.357q2.587-.73,3.21-1.7t-.021-3.252q-.052-.186.317-.289c.246-.071.387-.043.422.08q.435,1.539.617,2.419l.9,3.4,1.053,3.493q.3.846.723,2.323.034.125-.335.228" fill="#e6eff7"/>
    <path id="パス_43990" data-name="パス 43990" d="M35.324,324.868a10.936,10.936,0,0,1-3.933,4.743,13.993,13.993,0,0,1-12.958,1.369,13.589,13.589,0,0,1-8.353-10.894,8.045,8.045,0,0,1,1.082-5.965,7.111,7.111,0,0,1,5.086-2.7q1.775-.246,1.88.514l.6,4.375a9.781,9.781,0,0,0-5.6,1.775,4.116,4.116,0,0,0-1.486,3.984,5.558,5.558,0,0,0,3.3,4.486,13.008,13.008,0,0,0,7.437.75q5.578-.77,8.52-3.793a8.813,8.813,0,0,0,2.285-7.778,9.514,9.514,0,0,0-.913-3.1,20.214,20.214,0,0,0-1.919-2.9l-.009-.062a.446.446,0,0,1,.174-.38.345.345,0,0,1,.407-.09,16.05,16.05,0,0,1,3.58,4.159,13.267,13.267,0,0,1,1.6,4.817,12.208,12.208,0,0,1-.787,6.7m-15.71,4.366L17.4,315.068l1.142-.157,2.015,14.129Z" fill="#e6eff7"/>
    <path id="パス_43991" data-name="パス 43991" d="M9.32,285.835a5.962,5.962,0,0,1-1.594-3.526,4.827,4.827,0,0,1,.817-2.766,2.489,2.489,0,0,1,2.059-1.315,2.244,2.244,0,0,1,2.342,2.329,2.1,2.1,0,0,1-.268,1.157,13.2,13.2,0,0,1-.845,1.166,8.142,8.142,0,0,0-.814,1.069,2.135,2.135,0,0,0-.237,1.125,3.325,3.325,0,0,0,.961,2,38.705,38.705,0,0,0,4.063,3.677l-.7.4a41.71,41.71,0,0,1-5.786-5.312m23.558,11.608c-.256,0-.385-.059-.388-.188a6.225,6.225,0,0,0-.391-2.392,1.942,1.942,0,0,0-1.3-1.066,10.049,10.049,0,0,0-2.789-.242l-12.478.209a7.067,7.067,0,0,0-3.032.53,1.69,1.69,0,0,0-.9,1.647,10.7,10.7,0,0,0,.953,3.378l0,.128q0,.191-.316.293c-.212.067-.341.037-.385-.09l-3.908-7.809-.07-.381q-.01-.639,1.482-1.338a9.757,9.757,0,0,1,3.924-.738l14.655-.245a6.261,6.261,0,0,0,2.775-.526,2.631,2.631,0,0,0,1.25-1.78,15.556,15.556,0,0,0,.288-3.846q0-.192.381-.2c.256-.005.385.057.387.185.023,1.406.021,2.539-.007,3.393l.017,4.863.123,3.583q.081.9.106,2.43,0,.192-.381.2" fill="#e6eff7"/>
    <path id="パス_43992" data-name="パス 43992" d="M12.5,241.485a3.076,3.076,0,0,0-1.356,1.96q-.042.188-.417.1t-.333-.272q.266-1.185.481-1.86l.717-2.922.843-4.074q.148-.951.509-2.574c.028-.125.167-.161.417-.105s.361.147.333.272q-.781,3.5.656,3.818a2.47,2.47,0,0,0,1.07-.09L33.3,231.4l2.935,3.015-14.91-10.473.778-1.137L37.729,233.9c.156.079.189.327.1.744s-.229.626-.4.63l-20.885,4.851a13.329,13.329,0,0,0-4.041,1.36m3.319-15.029a2.525,2.525,0,0,0-1.274,1.748c-.019.084-.155.1-.4.041s-.366-.124-.347-.208q.25-1.125.465-1.8l.676-2.734.857-4.137q.147-.951.481-2.45c.028-.125.167-.159.417-.1s.361.146.333.271q-.74,3.312.76,3.645a2.15,2.15,0,0,0,.993-.041l17.858-4.213,2.948,2.952-15.715-10.98a5.26,5.26,0,0,0-1.838-.869q-2.75-.613-3.78,4.009-.042.188-.417.1c-.25-.055-.361-.146-.333-.271q.376-1.686.621-2.485l.9-3.734.468-2.388c.052-.424.178-1.1.382-2.012.028-.125.167-.159.417-.1s.361.147.333.272A3.942,3.942,0,0,0,21.12,204a12.091,12.091,0,0,0,3.24,3.115l16.7,11.857c.156.078.189.326.1.742s-.229.628-.4.632l-20.871,4.787a19.545,19.545,0,0,0-4.066,1.323" fill="#e6eff7"/>
    <path id="パス_43993" data-name="パス 43993" d="M17.807,182.757a2.944,2.944,0,0,1-2.431,0,2.76,2.76,0,0,1-1.729-1.578,3.4,3.4,0,0,1,.107-2.457,3.058,3.058,0,0,1,1.5-1.793,2.875,2.875,0,0,1,2.319.021,3.148,3.148,0,0,1,1.853,1.522,2.954,2.954,0,0,1-.045,2.378,3.293,3.293,0,0,1-1.574,1.9m29.505,14.888q-.358-.135-.291-.315.839-2.214.29-3.209t-3.062-1.945l-11.075-4.188a8.469,8.469,0,0,0-3.181-.725,1.61,1.61,0,0,0-1.493,1.146,6.852,6.852,0,0,0-.2,2.868l-.022.06c-.061.16-.216.239-.466.235s-.364-.092-.344-.267l-.692-9.568.031-.261a.657.657,0,0,1,.326-.322.58.58,0,0,1,.5-.051q.42.159,2.371.965t4.647,1.827l11.135,4.21q2.512.951,3.583.568t1.906-2.6q.068-.18.427-.044t.291.315q-.544,1.437-.943,2.312l-1.305,3.27-1.185,3.315q-.281.921-.823,2.358c-.046.119-.188.134-.428.043" fill="#e6eff7"/>
    <path id="パス_43994" data-name="パス 43994" d="M58.2,171.371a4.71,4.71,0,0,1-4.565-.241l-13.227-6.605a4.531,4.531,0,0,0-2.848-.742q-.844.259-1.788,2.148-.085.171-.543-.057c-.268-.133-.373-.258-.316-.372a7.606,7.606,0,0,0,.8-4.68,6.009,6.009,0,0,0-2.234-3.62c-.1-.094-.078-.276.056-.544s.258-.372.372-.315l19.754,9.864q4.525,2.259,6.726-2.15a8.054,8.054,0,0,0,.655-5.324.268.268,0,0,1,.028-.2.379.379,0,0,1,.372-.172c.192,0,.3.077.315.229a19.554,19.554,0,0,1,.633,5.181,10.006,10.006,0,0,1-1.057,4.122,7.815,7.815,0,0,1-3.132,3.479M39,160.462l-1.316-.657a100.031,100.031,0,0,0,3.944-9.333c.058-.115.238-.143.544-.086a3.716,3.716,0,0,1,.974.343,3.376,3.376,0,0,1,.916.671q.4.416.229.616A45.691,45.691,0,0,0,39,160.462" fill="#e6eff7"/>
    <path id="パス_43995" data-name="パス 43995" d="M68.351,151.835q-.318-.213-.248-.32,1.322-1.965,1.015-3.058t-2.537-2.593l-27.3-18.354a9.318,9.318,0,0,0-2.967-1.494,1.51,1.51,0,0,0-1.663.695,6.954,6.954,0,0,0-.88,2.8l-.036.054a.417.417,0,0,1-.479.14c-.225-.048-.336-.149-.336-.3l1.385-9.4.107-.159a.733.733,0,0,1,.428-.292.58.58,0,0,1,.5.064l33.674,22.64q2.23,1.5,3.376,1.344t2.466-2.121c.072-.106.213-.088.426.055s.283.268.212.374q-.894,1.329-1.446,2.036l-2.017,2.885-1.982,3.063q-.447.78-1.3,2.054c-.048.072-.178.035-.39-.108m9.605-14.287c-.212-.143-.295-.249-.247-.32q1.321-1.965,1.015-3.058t-2.538-2.593l-8.178-5.5q-3.081-2.072-5.336-1.929a5.029,5.029,0,0,0-3.862,2.532,8.975,8.975,0,0,0-1.419,4.521,11.836,11.836,0,0,0,.832,5.186l-.817-.163a21.555,21.555,0,0,1-1.461-7.576,10.652,10.652,0,0,1,1.78-5.86,7.092,7.092,0,0,1,4.735-3.371,8.191,8.191,0,0,1,5.9,1.655l10.251,6.892q2.23,1.5,3.376,1.345t2.467-2.121q.106-.159.426.055c.212.143.283.267.212.374q-.894,1.328-1.447,2.035l-2.016,2.886L79.65,135.6q-.447.78-1.3,2.054-.072.106-.391-.108" fill="#e6eff7"/>
    <path id="パス_43996" data-name="パス 43996" d="M109.391,99.8a4.707,4.707,0,0,1-4.221-1.753L94.911,87.4q-1.554-1.613-2.437-1.652t-2.4,1.427q-.138.134-.493-.236c-.207-.214-.266-.367-.173-.456a7.608,7.608,0,0,0,2.317-4.143,6.008,6.008,0,0,0-.9-4.158c-.059-.122.02-.287.235-.494s.367-.265.456-.172l15.322,15.9q3.507,3.64,7.056.221a8.066,8.066,0,0,0,2.4-4.8.26.26,0,0,1,.093-.18.379.379,0,0,1,.409-.037c.179.064.253.17.219.32a19.5,19.5,0,0,1-1.134,5.094,10.066,10.066,0,0,1-2.374,3.532,7.811,7.811,0,0,1-4.116,2.232M94.945,83.1l-1.021-1.06a99.725,99.725,0,0,0,6.837-7.478c.092-.088.273-.054.541.1a3.739,3.739,0,0,1,.8.649,3.279,3.279,0,0,1,.638.939c.161.35.164.57.012.657a45.719,45.719,0,0,0-7.81,6.192" fill="#e6eff7"/>
    <path id="パス_43997" data-name="パス 43997" d="M125.468,84.791c-.154-.206-.2-.333-.127-.385q1.9-1.412,1.976-2.545t-1.527-3.29L106.173,52.165a9.314,9.314,0,0,0-2.3-2.4,1.506,1.506,0,0,0-1.8.1,6.936,6.936,0,0,0-1.765,2.347l-.05.038a.417.417,0,0,1-.5-.028c-.2-.119-.268-.252-.216-.4l4.441-8.4.155-.114a.716.716,0,0,1,.5-.131.576.576,0,0,1,.447.224l24.2,32.573q1.6,2.157,2.735,2.392t3.033-1.177c.1-.076.23-.011.382.194s.178.347.076.423q-1.286.954-2.042,1.437L130.6,81.294l-2.89,2.227q-.681.586-1.914,1.5c-.069.051-.179-.027-.331-.232m13.819-10.267c-.152-.206-.2-.333-.126-.385q1.9-1.412,1.977-2.544t-1.529-3.29l-5.877-7.912q-2.212-2.979-4.386-3.6a5.03,5.03,0,0,0-4.486,1.1,8.966,8.966,0,0,0-2.845,3.789,11.839,11.839,0,0,0-.946,5.168l-.715-.427a21.551,21.551,0,0,1,1.149-7.63,10.641,10.641,0,0,1,3.632-4.93,7.088,7.088,0,0,1,5.588-1.6,8.2,8.2,0,0,1,5.014,3.53l7.366,9.915q1.6,2.159,2.735,2.394t3.032-1.177c.1-.076.23-.012.384.194s.178.346.074.423q-1.284.956-2.041,1.437l-2.864,2.047-2.89,2.227q-.683.586-1.914,1.5-.1.077-.332-.232" fill="#e6eff7"/>
    <path id="パス_43998" data-name="パス 43998" d="M162.164,58.976a10.919,10.919,0,0,1-5.832-1.983,13.659,13.659,0,0,1,1.3-23.307,8.041,8.041,0,0,1,5.957-1.115,7.114,7.114,0,0,1,4.341,3.787q.862,1.572.189,1.941l-3.871,2.123a9.8,9.8,0,0,0-3.656-4.6,4.118,4.118,0,0,0-4.253.033,5.562,5.562,0,0,0-3.015,4.684,13.008,13.008,0,0,0,1.951,7.215q2.709,4.938,6.581,6.609a8.817,8.817,0,0,0,8.082-.637,9.542,9.542,0,0,0,2.575-1.96,20.3,20.3,0,0,0,2.026-2.827l.056-.03a.44.44,0,0,1,.416.027.344.344,0,0,1,.229.349,16.045,16.045,0,0,1-2.61,4.825,13.233,13.233,0,0,1-3.931,3.215,12.192,12.192,0,0,1-6.538,1.652m-9.68-13.122,12.446-7.119.555,1.01L153,46.665Z" fill="#e6eff7"/>
    <path id="パス_43999" data-name="パス 43999" d="M212.041,36.773a11.319,11.319,0,0,1-5.39-3.3,13.918,13.918,0,0,1-3.052-5.436,12.188,12.188,0,0,1-.011-7.442,14.058,14.058,0,0,1,3.882-6.029,15.259,15.259,0,0,1,6.037-3.5,11.57,11.57,0,0,1,5.368-.362q2.605.461,3.118,2.177a2.277,2.277,0,0,1-.2,1.8,2.591,2.591,0,0,1-1.64,1.223q-1.964.584-3.779-1.48a5.751,5.751,0,0,0-2.074-1.587,4.064,4.064,0,0,0-2.574.1,6.049,6.049,0,0,0-4.237,4.165,12.79,12.79,0,0,0,.267,7.633,13.933,13.933,0,0,0,4.967,7.6q3.45,2.512,8.543,1a11.028,11.028,0,0,0,5.568-3.727l.123-.036a.457.457,0,0,1,.392.083c.138.093.159.2.06.316a15.813,15.813,0,0,1-3.5,4.179,13.2,13.2,0,0,1-4.634,2.38,12.726,12.726,0,0,1-7.237.25" fill="#e6eff7"/>
    <path id="パス_44000" data-name="パス 44000" d="M244.045,28.755a12.259,12.259,0,0,1-5.154-4.185,14.763,14.763,0,0,1-2.587-6.431,11.982,11.982,0,0,1,.936-7.3,12.675,12.675,0,0,1,4.517-5.107A15.749,15.749,0,0,1,247.985,3.3a12.017,12.017,0,0,1,6.862.811,12.368,12.368,0,0,1,5.117,4.159,14.071,14.071,0,0,1,2.507,6.119,12.7,12.7,0,0,1-5.053,12.477,14.614,14.614,0,0,1-6.516,2.666,12.174,12.174,0,0,1-6.857-.779m12.989-3.932q1.324-2.731.547-7.728a19.653,19.653,0,0,0-2.356-7.017A11.2,11.2,0,0,0,251.1,5.829a7.72,7.72,0,0,0-5.067-.927,5.56,5.56,0,0,0-4.4,3.114q-1.307,2.633-.589,7.249a21.027,21.027,0,0,0,2.329,7.054,12.5,12.5,0,0,0,4.117,4.606,7.123,7.123,0,0,0,5.065,1.122,5.637,5.637,0,0,0,4.485-3.224" fill="#e6eff7"/>
    <path id="パス_44001" data-name="パス 44001" d="M274.984,24.753q.008-.384.2-.381a6.207,6.207,0,0,0,2.406-.3,1.946,1.946,0,0,0,1.117-1.255,10.04,10.04,0,0,0,.347-2.778l.27-12.477a7.064,7.064,0,0,0-.415-3.05,1.691,1.691,0,0,0-1.612-.963,10.7,10.7,0,0,0-3.41.823l-.128,0c-.129,0-.221-.111-.281-.326s-.024-.341.105-.382L281.534.056,281.919,0c.426.009.853.521,1.279,1.531a9.744,9.744,0,0,1,.587,3.951l-.316,14.652a10.013,10.013,0,0,0,.228,2.79,1.938,1.938,0,0,0,1.06,1.3,6.449,6.449,0,0,0,2.456.406c.128,0,.189.13.184.387s-.072.383-.2.38q-1.537-.033-2.494-.119l-3.519-.139-3.584-.013q-.9.045-2.432.012c-.128,0-.19-.133-.184-.388m16.443.354c.006-.256.073-.383.2-.379q2.368.048,3.123-.8t.812-3.536l.213-9.853a9.534,9.534,0,0,0-1.161-5.532,4.549,4.549,0,0,0-3.929-1.876,8.23,8.23,0,0,0-4.38,1.25,12.368,12.368,0,0,0-3.788,3.5l-.239-.773q5.272-7.12,11.033-7a6.879,6.879,0,0,1,5.142,2.033,7.8,7.8,0,0,1,1.734,5.67l-.273,12.669q-.059,2.688.659,3.567t3.084.931c.128,0,.189.132.183.388s-.072.383-.2.38q-1.535-.033-2.494-.118l-3.518-.14-3.52-.013q-.961.044-2.5.011c-.128,0-.189-.133-.184-.388m16.637.359c.005-.256.05-.383.136-.381q2.367.051,3.154-.8t.845-3.535l.212-9.853A9.536,9.536,0,0,0,311.25,5.37a4.618,4.618,0,0,0-3.993-1.878,8.282,8.282,0,0,0-4.347,1.25,12.2,12.2,0,0,0-3.821,3.5l-.239-.774a21.85,21.85,0,0,1,5.4-5.325,9.957,9.957,0,0,1,5.7-1.669,6.628,6.628,0,0,1,5.14,2.1Q316.835,4.6,316.752,8.5l-.266,12.349q-.059,2.688.659,3.568t3.084.93q.255.006.248.39c-.006.256-.1.382-.265.378q-1.535-.031-2.429-.116l-3.582-.142-3.521-.011q-.96.043-2.5.01c-.086,0-.125-.132-.119-.387" fill="#e6eff7"/>
    <path id="パス_44002" data-name="パス 44002" d="M329.731,27.049q.089-.374.275-.329a6.232,6.232,0,0,0,2.417.21,1.939,1.939,0,0,0,1.354-.994,10.069,10.069,0,0,0,.922-2.643l2.876-12.143a7.045,7.045,0,0,0,.235-3.069A1.688,1.688,0,0,0,336.436,6.8a10.686,10.686,0,0,0-3.508.089l-.124-.029c-.125-.03-.194-.155-.207-.378s.048-.339.182-.351l8.531-1.86.388.026q.623.148.93,1.766a9.756,9.756,0,0,1-.254,3.985l-3.379,14.261a10.064,10.064,0,0,0-.361,2.776,1.938,1.938,0,0,0,.764,1.5,6.439,6.439,0,0,0,2.316.91c.125.03.157.169.1.418s-.152.359-.276.33q-1.5-.354-2.414-.638l-3.41-.873-3.5-.764q-.888-.146-2.381-.5c-.125-.029-.157-.168-.1-.418m16.005,3.792q.089-.374.275-.33,2.3.546,3.22-.125t1.535-3.286l2.272-9.59a9.54,9.54,0,0,0,.024-5.651A4.551,4.551,0,0,0,349.614,9.2a8.214,8.214,0,0,0-4.545.305,12.361,12.361,0,0,0-4.439,2.631l-.071-.806q6.648-5.856,12.254-4.529a6.869,6.869,0,0,1,4.6,3.064,7.8,7.8,0,0,1,.508,5.908L355,28.1q-.619,2.616-.1,3.626t2.821,1.556c.125.03.157.169.1.418s-.152.359-.276.33q-1.494-.354-2.414-.638l-3.41-.874-3.44-.749q-.95-.159-2.444-.513c-.125-.03-.157-.169-.1-.418m16.192,3.836c.059-.249.129-.364.213-.344q2.3.546,3.251-.118t1.566-3.279l2.272-9.591a9.528,9.528,0,0,0,.023-5.65,4.617,4.617,0,0,0-3.51-2.674,8.3,8.3,0,0,0-4.513.312,12.221,12.221,0,0,0-4.47,2.625l-.072-.807a21.825,21.825,0,0,1,6.392-4.076A9.95,9.95,0,0,1,369,10.637a6.634,6.634,0,0,1,4.588,3.125q1.285,2.344.386,6.143l-2.848,12.02q-.619,2.615-.1,3.626t2.821,1.556c.165.039.22.183.16.432s-.172.354-.337.315q-1.5-.354-2.351-.623l-3.473-.888-3.441-.749q-.948-.159-2.443-.514c-.084-.02-.1-.154-.036-.4" fill="#e6eff7"/>
    <path id="パス_44003" data-name="パス 44003" d="M387.057,42.085a8.307,8.307,0,0,1,.6-6.062l3.906-8.91a9.8,9.8,0,0,0,.978-3.344,1.529,1.529,0,0,0-.912-1.588,5.317,5.317,0,0,0-2.048-.269l-.117-.052c-.118-.051-.164-.187-.136-.408s.107-.326.242-.313l8.33-.192.26.044a.943.943,0,0,1,.363.368.547.547,0,0,1,.083.527l-5.986,13.657q-1.491,3.4-1,5.538a4.663,4.663,0,0,0,2.957,3.218,9.145,9.145,0,0,0,4.688.623,12.14,12.14,0,0,0,5-1.686l.01.773q-7.827,4.467-13.337,2.05a6.6,6.6,0,0,1-3.883-3.974m19.134,5.768a1.68,1.68,0,0,0,1.109,1.535,9.671,9.671,0,0,0,3.232.438l.058.026a.412.412,0,0,1,.237.418c0,.21-.074.329-.226.355l-8.784.272-.26-.044q-.587-.257-.5-1.9a11.719,11.719,0,0,1,1.091-3.924L407.034,33.9a9.767,9.767,0,0,0,.976-3.345,1.526,1.526,0,0,0-.911-1.588,5.8,5.8,0,0,0-2.106-.294l-.117-.051c-.119-.052-.155-.183-.107-.4s.137-.313.272-.3l8.33-.192.259.045a.839.839,0,0,1,.392.381.555.555,0,0,1,.055.513l-7.067,16.12a7.492,7.492,0,0,0-.819,3.064" fill="#e6eff7"/>
    <path id="パス_44004" data-name="パス 44004" d="M417.318,57.45q.205-.325.369-.223a6.211,6.211,0,0,0,2.216.984,1.941,1.941,0,0,0,1.6-.5,10.01,10.01,0,0,0,1.729-2.2L429.9,44.958a7.048,7.048,0,0,0,1.218-2.826,1.689,1.689,0,0,0-.885-1.656,10.7,10.7,0,0,0-3.346-1.054l-.108-.068c-.108-.068-.133-.21-.073-.425s.155-.305.286-.273l8.672,1.011.359.151c.361.227.462.886.306,1.972a9.746,9.746,0,0,1-1.533,3.687l-7.826,12.391a10.021,10.021,0,0,0-1.243,2.508,1.934,1.934,0,0,0,.236,1.663,6.472,6.472,0,0,0,1.9,1.614q.162.1-.043.427c-.136.216-.259.29-.367.222q-1.3-.821-2.076-1.387l-2.942-1.934-3.065-1.859q-.792-.426-2.09-1.245c-.108-.068-.094-.211.042-.427m14.557,9.193c.137-.216.259-.291.367-.222a6.266,6.266,0,0,0,2.217.984,1.94,1.94,0,0,0,1.6-.5,10.031,10.031,0,0,0,1.731-2.2l5.365-8.5q1.982-3.136,1.769-5.317a5.1,5.1,0,0,0-2.7-3.751,8.811,8.811,0,0,0-4.534-1.273,12.637,12.637,0,0,0-5.187.963l.194-.786q8.441-3.3,13.419-.154a7.144,7.144,0,0,1,3.516,4.681,8.133,8.133,0,0,1-1.443,5.939l-6.664,10.552a10.037,10.037,0,0,0-1.243,2.507,1.937,1.937,0,0,0,.237,1.663,6.457,6.457,0,0,0,1.9,1.614c.108.068.094.211-.043.427s-.259.29-.367.222q-1.3-.819-2.076-1.387l-2.943-1.934-3.009-1.825q-.848-.459-2.145-1.279c-.108-.068-.094-.211.043-.427" fill="#e6eff7"/>
    <path id="パス_44005" data-name="パス 44005" d="M450.545,79.907q.243-.3.392-.176,1.831,1.5,2.95,1.3t2.818-2.283l7.5-9.164a8.483,8.483,0,0,0,1.7-2.785,1.616,1.616,0,0,0-.611-1.782,6.9,6.9,0,0,0-2.657-1.1l-.05-.04c-.132-.109-.157-.28-.074-.516s.2-.316.362-.241l9.29,2.391.24.112a.67.67,0,0,1,.2.412.578.578,0,0,1-.111.489q-.283.346-1.67,1.941t-3.21,3.823L460.074,81.5q-1.7,2.081-1.679,3.215t1.855,2.634q.148.122-.094.419c-.163.2-.293.257-.392.176q-1.189-.974-1.892-1.631l-2.683-2.278-2.766-2.179q-.783-.558-1.973-1.531c-.1-.081-.067-.221.1-.419m23.509-23.228a2.945,2.945,0,0,1,.771-2.306,2.759,2.759,0,0,1,2.046-1.137,3.387,3.387,0,0,1,2.294.885,3.058,3.058,0,0,1,1.223,1.993,2.878,2.878,0,0,1-.759,2.19,3.146,3.146,0,0,1-2.033,1.272,2.957,2.957,0,0,1-2.24-.8,3.3,3.3,0,0,1-1.3-2.1" fill="#e6eff7"/>
    <path id="パス_44006" data-name="パス 44006" d="M471.995,98.589a4.709,4.709,0,0,1,1.676-4.253l10.461-10.448q1.586-1.581,1.609-2.465t-1.47-2.377q-.135-.135.226-.5c.211-.211.363-.271.454-.181a7.615,7.615,0,0,0,4.184,2.243,6.008,6.008,0,0,0,4.142-.971q.18-.09.5.227t.18.453l-15.622,15.6q-3.578,3.573-.1,7.059a8.048,8.048,0,0,0,4.841,2.311.259.259,0,0,1,.18.091.374.374,0,0,1,.045.407c-.06.181-.166.257-.316.226a19.494,19.494,0,0,1-5.114-1.044,10,10,0,0,1-3.573-2.31,7.8,7.8,0,0,1-2.3-4.074m16.437-14.743,1.041-1.04a99.639,99.639,0,0,0,7.6,6.7c.09.09.059.271-.091.543a3.754,3.754,0,0,1-.634.814,3.34,3.34,0,0,1-.929.655c-.346.166-.566.173-.656.023a45.706,45.706,0,0,0-6.33-7.7" fill="#e6eff7"/>
    <path id="パス_44007" data-name="パス 44007" d="M522.493,120.683c-.2.158-.342.187-.421.085a3.971,3.971,0,0,0-2.869-1.532,12.658,12.658,0,0,0-4.74.748l-20.615,6.486a60.928,60.928,0,0,1-10.33,2.487,15.8,15.8,0,0,1-6.619-.3,8.614,8.614,0,0,1-4.243-2.975,4.112,4.112,0,0,1-.986-2.4,2.316,2.316,0,0,1,.969-1.98,2.068,2.068,0,0,1,1.724-.5,2.421,2.421,0,0,1,1.46.929,4.461,4.461,0,0,1,.925,2.528c.019.092.069.364.152.816a3.2,3.2,0,0,0,.676,1.381,4.019,4.019,0,0,0,2.925,1.448,18.817,18.817,0,0,0,5.472-.591q3.537-.78,9.654-2.729l-1.9,1.41,10.123-21.111a19.677,19.677,0,0,0,1.508-3.989,2.52,2.52,0,0,0-.5-2.089c-.079-.1-.017-.23.184-.388s.342-.186.421-.085q.948,1.208,1.371,1.852l1.371,1.853,2.617,3.234q.642.717,1.669,2.026.08.1-.223.337t-.381.136a8.481,8.481,0,0,0-1.911-1.917,1.133,1.133,0,0,0-1.409-.034,3.394,3.394,0,0,0-.658.923L499.387,124.4l-3.473.445,17.5-6a9.465,9.465,0,0,0,2.33-1.176,2.591,2.591,0,0,0,1.147-2.323,6.484,6.484,0,0,0-1.573-3.2c-.053-.067.023-.18.224-.337s.328-.2.381-.136q1.066,1.359,1.569,2.1l2.318,3.061,1.551,1.875q.444.463,1.315,1.572c.079.1.017.23-.184.388" fill="#e6eff7"/>
    <path id="パス_44008" data-name="パス 44008" d="M507.486,142.166a3.072,3.072,0,0,1,1.441-1.957,2.788,2.788,0,0,1,2.271-.435,3.22,3.22,0,0,1,1.9,1.477,3.076,3.076,0,0,1,.558,2.343,2.9,2.9,0,0,1-1.37,1.834,3.184,3.184,0,0,1-2.37.575,3,3,0,0,1-1.929-1.459,3.062,3.062,0,0,1-.5-2.378" fill="#e6eff7"/>
  </g>
</svg>
