<svg xmlns="http://www.w3.org/2000/svg" xmlns:xlink="http://www.w3.org/1999/xlink" width="317.244" height="365.485" viewBox="0 0 317.244 365.485">
  <defs>
    <clipPath id="clip-path">
      <rect id="長方形_76387" data-name="長方形 76387" width="317.244" height="365.485" fill="#fff"/>
    </clipPath>
  </defs>
  <g id="logo-mark01_white" opacity="0.4" clip-path="url(#clip-path)">
    <path id="パス_50782" data-name="パス 50782" d="M244.629,303.574c-12.241,15.6-27.688,27.3-44.363,37.345-22.9,13.8-47.619,22.434-74.448,24.3-48.9,3.394-94.712-25.5-113.109-71.248C-5.045,249.812-2.882,205.393,11.077,160.85c.371-1.18.522-2.753,3.2-3.346-6.125,20.208-6.514,40.584-5.049,60.865,4.09,56.609,42.482,107.722,98.785,121.689,8.574,2.127,14.746.82,21.267-5.688,35.289-35.214,71.02-69.986,106.648-104.864,21.657-21.2,43.247-42.475,65.208-63.358,5.739-5.458,8.126-11.3,6.815-18.871-1.4-8.086-2.928-16.149-4.287-24.241-1.257-7.485-3.97-6.445-8.451-2.041q-38.492,37.826-77.273,75.358c-1.826,1.777-3.63,3.583-5.538,5.271-1.7,1.507-3.544,1.673-5.317.039-2.03-1.872-2.211-3.914-.265-5.907,4.158-4.256,8.337-8.492,12.593-12.649,24.313-23.755,48.573-47.566,73.056-71.146,4.345-4.183,5.3-7.829,2.551-13.35-3.3-6.615-7.154-12.85-10.83-19.223-3.248-5.634-5.9-6.094-10.782-1.235-20.274,20.182-40.934,39.975-61.452,59.913-1.83,1.777-3.454,3.841-5.516,5.282-2.872,2.007-5.074,7.992-9.548,3.67-4.586-4.431,1.047-7,3.479-9.422,11.034-10.992,22.386-21.662,33.539-32.534s21.968-22.126,33.415-32.687c5.664-5.227,5.181-8.856-.163-13.756-38.5-35.3-82.935-44.157-132.548-30-23.568,6.725-44.145,18.919-62.545,34.966-1.615,1.408-2.75,3.625-6.227,3.741,3.845-6.6,9.351-10.946,14.384-15.571,25.459-23.393,54.2-41.223,88.354-48.484,66.38-14.115,121.2,18.157,141.2,83.078,12.556,40.756,8.422,81.093-6.059,120.785.934-5.469,2.027-10.917,2.76-16.413.735-5.516,2.683-11.012.561-18-6.283,5.61-12.257,10.548-17.783,15.943q-59.9,58.476-119.669,117.093c-10.529,10.291-21.3,20.332-31.844,30.609-1.675,1.632-4.754,4.108-3.675,5.9,1.3,2.148,4.545,2,7.055,1.9,30.407-1.124,58.583-9.427,83.921-26.547,6.654-4.5,13.061-9.357,19.582-14.051m-84.3-267.059c-1.11.218-2.243.335-3.34.6-26.566,6.4-47.039,33.549-46.031,61.02.4,10.968,1.9,12.262,12.592,10.85a60.679,60.679,0,0,0,52.445-59.532c.053-14.586-1.369-15.758-15.666-12.937M49.268,80.316c-6.929-.925-9.548,1.25-10.459,8.228-3.721,28.47,18.635,58.532,48.542,64.591,14.5,2.937,15.982,1.751,15.785-12.66-.43-31.278-22.747-56.009-53.868-60.159m114.881,24.692c-29.581,2.744-55.67,33.937-53.06,63.44.813,9.191,3.236,11.07,12.549,9.725a60.832,60.832,0,0,0,52.285-59.617c.092-13.207-1.066-14.542-11.774-13.547m5.037,74.094c-35.333,1.585-59.964,32.036-57.781,65.9.367,5.7,2.925,8.54,9.363,7.878,30.671-3.151,54.931-29.5,55.094-60.967-1.36-4.268,3.141-13.251-6.676-12.811M48.816,151.979c-6.679-.889-8.985,1.235-9.91,7.713-4.033,28.232,17.8,58.066,47.923,64.9,14.542,3.3,16.513,1.726,16.22-12.915-.619-31.048-23.088-55.55-54.233-59.694m-.366,76.3c-6.239-.848-8.574.869-9.414,7.137-4.319,32.233,24.362,65.846,57,66.575,4.329.1,6.38-1.629,6.543-5.781.1-2.542.017-5.089.017-7.635.177-31.519-22.015-55.927-54.148-60.3" transform="translate(0 0)" fill="#fff"/>
  </g>
</svg>
