<svg id="logo-mark02" xmlns="http://www.w3.org/2000/svg" xmlns:xlink="http://www.w3.org/1999/xlink" width="389.556" height="448.793" viewBox="0 0 389.556 448.793">
  <defs>
    <linearGradient id="linear-gradient" x1="1" y1="0.471" x2="0.332" y2="0.476" gradientUnits="objectBoundingBox">
      <stop offset="0" stop-color="#fff" stop-opacity="0.659"/>
      <stop offset="1" stop-color="#e5f3fd"/>
    </linearGradient>
    <clipPath id="clip-path">
      <rect id="長方形_75638" data-name="長方形 75638" width="389.556" height="448.793" fill="url(#linear-gradient)"/>
    </clipPath>
  </defs>
  <g id="グループ_211" data-name="グループ 211" clip-path="url(#clip-path)">
    <path id="パス_43952" data-name="パス 43952" d="M300.389,372.77c-15.032,19.162-34,33.517-54.474,45.857-28.119,16.946-58.473,27.547-91.418,29.834-60.045,4.168-116.3-31.312-138.891-87.488-21.8-54.22-19.145-108.763-2-163.459.455-1.449.641-3.381,3.925-4.109-7.521,24.814-8,49.835-6.2,74.739,5.022,69.512,52.165,132.276,121.3,149.427,10.528,2.612,18.107,1.007,26.115-6.984,43.333-43.241,87.208-85.939,130.957-128.766,26.593-26.033,53.1-52.157,80.071-77.8,7.047-6.7,9.979-13.877,8.369-23.173-1.718-9.929-3.6-19.83-5.264-29.767-1.543-9.191-4.876-7.914-10.378-2.506q-47.265,46.448-94.886,92.535c-2.242,2.182-4.458,4.4-6.8,6.473-2.088,1.85-4.351,2.055-6.529.048-2.493-2.3-2.714-4.807-.326-7.254,5.105-5.226,10.238-10.428,15.464-15.533,29.855-29.17,59.644-58.408,89.708-87.363,5.335-5.137,6.513-9.613,3.132-16.393-4.046-8.122-8.784-15.779-13.3-23.605-3.988-6.918-7.243-7.483-13.24-1.516-24.9,24.783-50.265,49.087-75.459,73.569-2.247,2.182-4.241,4.717-6.773,6.485-3.527,2.464-6.231,9.814-11.724,4.506-5.631-5.441,1.286-8.6,4.272-11.57,13.549-13.5,27.489-26.6,41.184-39.95S314.2,101.839,328.254,88.87c6.955-6.419,6.362-10.874-.2-16.892C280.772,28.627,226.214,17.756,165.292,35.143c-28.94,8.258-54.207,23.231-76.8,42.936-1.984,1.729-3.376,4.452-7.646,4.594,4.721-8.1,11.482-13.441,17.663-19.12C129.769,34.828,165.067,12.933,207,4.017c81.51-17.333,148.828,22.3,173.389,102.015,15.418,50.046,10.342,99.578-7.44,148.316,1.146-6.715,2.489-13.405,3.389-20.154.9-6.774,3.295-13.522.689-22.1-7.715,6.888-15.05,12.952-21.837,19.577q-73.556,71.8-146.947,143.783c-12.929,12.637-26.157,24.966-39.1,37.586-2.057,2-5.838,5.045-4.512,7.245,1.591,2.637,5.581,2.451,8.663,2.339,37.338-1.38,71.937-11.576,103.05-32.6,8.17-5.521,16.038-11.49,24.046-17.253M196.872,44.838c-1.363.267-2.754.411-4.1.735-32.621,7.859-57.761,41.2-56.523,74.929.495,13.468,2.339,15.057,15.462,13.324,36.455-4.817,64.269-36.39,64.4-73.1.065-17.911-1.681-19.35-19.237-15.886M60.5,98.623c-8.509-1.136-11.724,1.535-12.843,10.1-4.569,34.96,22.883,71.874,59.607,79.314,17.811,3.606,19.625,2.151,19.383-15.545-.528-38.407-27.931-68.775-66.146-73.872m141.067,30.32c-36.323,3.37-68.36,41.673-65.155,77.9,1,11.286,3.974,13.593,15.41,11.941a74.7,74.7,0,0,0,64.2-73.206c.113-16.218-1.309-17.857-14.457-16.635m6.185,90.983c-43.387,1.946-73.632,39.338-70.951,80.921.451,7,3.591,10.486,11.5,9.674,37.662-3.869,67.451-36.221,67.652-74.864-1.67-5.241,3.857-16.272-8.2-15.731M59.943,186.621c-8.2-1.092-11.033,1.516-12.169,9.471-4.953,34.667,21.862,71.3,58.847,79.687,17.857,4.049,20.277,2.119,19.918-15.859-.76-38.125-28.351-68.211-66.6-73.3m-.449,93.69c-7.661-1.042-10.528,1.067-11.559,8.763-5.3,39.58,29.915,80.854,69.995,81.75,5.316.119,7.834-2,8.035-7.1.121-3.122.021-6.249.021-9.375.217-38.7-27.034-68.675-66.491-74.039" transform="translate(0 0)" fill="url(#linear-gradient)"/>
  </g>
</svg>
