<svg xmlns="http://www.w3.org/2000/svg" xmlns:xlink="http://www.w3.org/1999/xlink" width="249.545" height="54.98" viewBox="0 0 249.545 54.98">
  <defs>
    <linearGradient id="linear-gradient" x1="0.5" x2="0.5" y2="1" gradientUnits="objectBoundingBox">
      <stop offset="0" stop-color="#1bb7eb"/>
      <stop offset="1" stop-color="#1d588e"/>
    </linearGradient>
    <clipPath id="clip-path">
      <rect id="長方形_75638" data-name="長方形 75638" width="47.723" height="54.98" fill="url(#linear-gradient)"/>
    </clipPath>
  </defs>
  <g id="logo" transform="translate(-49 -21.725)">
    <path id="パス_44863" data-name="パス 44863" d="M4.646-9.062c-.9.023-1.794-.069-2.691-.069-.506,0-.506.253-.506.9,0,.6,0,.851.506.851.9,0,1.794-.069,2.691-.046.46,0,.644.184.644.644v4.876c0,.437-.138.644-.575.713-.713.138-1.242.184-1.633.23-.759.092-.989.115-.989.368A16.255,16.255,0,0,0,2.507.989c.069.184.115.391.345.391.207,0,.253-.184.322-.322.092-.207.138-.207.667-.3C6.578.3,9.315-.23,12.006-.9c.529-.138.667-.207.667-.851,0-.3.023-.92-.414-.92-.046,0-3.91.828-4.439.943H7.682c-.345,0-.46-.253-.46-.529V-6.785c0-.46.184-.644.621-.644h2.415a.774.774,0,0,1,.851.552,14.21,14.21,0,0,0,5.52,6.509A17.454,17.454,0,0,0,20.079,1.4a1.538,1.538,0,0,0,.437.115c.46,0,1.012-.966,1.012-1.334,0-.276-.3-.368-.506-.46a18.153,18.153,0,0,1-4.669-2.576.418.418,0,0,1-.184-.368.493.493,0,0,1,.23-.368c1.7-1.219,1.288-1.012,2.323-1.817.092-.046.138-.092.23-.092a.978.978,0,0,1,.253.046.426.426,0,0,0,.161.046.227.227,0,0,0,.23-.207,4.129,4.129,0,0,0-1.541-1.541c-.115,0-.276.184-.345.276a21.874,21.874,0,0,1-2.461,2.139.661.661,0,0,1-.414.161.625.625,0,0,1-.46-.253,12.814,12.814,0,0,1-1.334-2.024.68.68,0,0,1-.046-.23c0-.322.345-.322.437-.345h4.922c.9,0,1.817.046,2.737.046.483,0,.506-.253.506-.851,0-.644,0-.9-.506-.9-.92,0-1.84.069-2.737.069H7.774c-.391,0-.552-.184-.552-.552v-.46c0-.368.161-.552.552-.552H14.6c.828,0,1.633.046,2.461.046.437,0,.46-.184.46-.782s-.023-.782-.46-.782c-.828,0-1.633.046-2.461.046H7.774c-.391,0-.552-.184-.552-.575v-.368c0-.391.161-.552.552-.552H14.49c.874,0,1.725.046,2.6.046.46,0,.46-.23.46-.805s0-.782-.46-.782c-.874,0-1.725.046-2.6.046H7.774c-.391,0-.552-.161-.552-.552v-.368c0-.391.161-.552.552-.552h9.108c.621,0,1.219.023,1.817.023.483,0,.506-.184.506-.828s-.023-.828-.506-.828c-.6,0-1.2.046-1.817.046H7.889c-.506,0-.989-.046-1.495-.046-.782,0-1.127.23-1.127,1.058,0,.46.023.943.023,1.4v6.026C5.29-9.269,5.106-9.062,4.646-9.062Zm29.6-1.61a.61.61,0,0,1-.621.644H29.164a.658.658,0,0,1-.644-.644v-4.462a.658.658,0,0,1,.644-.644h4.462a.61.61,0,0,1,.621.644Zm0,7.613a.61.61,0,0,1-.621.644H29.164a.658.658,0,0,1-.644-.644V-7.682a.643.643,0,0,1,.644-.644h4.462c.391.046.621.23.621.644Zm1.886-4.623a.629.629,0,0,1,.644-.644h4.485a.629.629,0,0,1,.644.644v4.623a.643.643,0,0,1-.644.644H36.777c-.414-.046-.644-.253-.644-.644Zm.644-2.346c-.414-.046-.644-.253-.644-.644v-4.462a.643.643,0,0,1,.644-.644h4.485a.643.643,0,0,1,.644.644v4.462a.643.643,0,0,1-.644.644ZM41.86.138c0,.6.184.667,1.012.667.782,0,1.012-.046,1.012-.667,0-.874-.069-1.725-.069-2.576V-14.444c0-.667.046-1.334.046-2.024,0-.943-.437-1.15-1.311-1.15-.69,0-1.38.046-2.093.046H29.969c-.713,0-1.4-.046-2.116-.046-.943,0-1.265.253-1.265,1.219,0,.667.023,1.311.023,1.955v11.96c0,.851-.046,1.7-.046,2.576,0,.6.207.667,1.012.667.782,0,1.012-.046,1.012-.667V-.184c0-.322.161-.437.46-.437H41.4c.3,0,.46.115.46.414Zm14.9-12.489c-.092,0-.161-.046-.161-.138a.209.209,0,0,1,.069-.161.367.367,0,0,0,.184-.322,11.926,11.926,0,0,0-.828-2,.371.371,0,0,1-.069-.207c0-.23.161-.3.368-.322h5.336c.253.023.46.092.46.391a.506.506,0,0,1-.023.184,14.706,14.706,0,0,1-.92,2.047.852.852,0,0,1-.943.529Zm-3.036,0c-.736,0-1.472-.023-2.185-.023s-1.127.207-1.127.966c0,.575.023,1.15.023,1.725v2.6A12.271,12.271,0,0,1,48.576.092a.708.708,0,0,0-.115.276c0,.437.943.92,1.311.92A.447.447,0,0,0,50.14,1.1a8.827,8.827,0,0,0,.92-1.725,15.829,15.829,0,0,0,1.173-6.187V-10.12c0-.437.184-.644.644-.644H65.251c.9,0,1.794.046,2.691.046.506,0,.483-.207.483-.828,0-.644,0-.851-.483-.851-.9,0-1.794.046-2.691.046H63.3c-.184-.023-.368-.092-.368-.322a.549.549,0,0,1,.046-.207c.253-.46.506-.92.736-1.4a.311.311,0,0,1,.276-.184c.253-.046.414-.046.414-.23,0-.276-.621-.483-.828-.552a.126.126,0,0,1-.092-.138c0-.023.023-.092.138-.115h1.288c.9,0,1.771.046,2.645.046.506,0,.506-.207.506-.828,0-.644,0-.851-.506-.851-.874,0-1.748.046-2.645.046h-4.37c-.437,0-.6-.161-.621-.6,0-.414,0-.621.276-.782.161-.115.3-.184.3-.322,0-.23-.3-.253-.46-.276-.391-.046-1.38-.138-1.748-.138-.207,0-.391.046-.391.3a.637.637,0,0,0,.023.207,7.482,7.482,0,0,1,.069,1.012c-.023.437-.184.6-.621.6H53.153c-.874,0-1.771-.046-2.645-.046-.483,0-.506.23-.506.851,0,.6.023.828.506.828.874,0,1.771-.046,2.645-.046H54.1c.115,0,.207.046.207.184a.306.306,0,0,1-.069.184.343.343,0,0,0-.092.207,7.511,7.511,0,0,0,.391.943c.184.368.391.8.506,1.1a.541.541,0,0,1,.046.184c0,.253-.161.322-.391.345Zm1.61,6.417a.827.827,0,0,1,.9-.552h2.783c.391,0,.552.161.552.552v.874c0,.391-.161.552-.552.552H57.684c-.828,0-1.656-.046-2.507-.046-.46,0-.46.253-.46.759,0,.529-.023.782.46.782.828,0,1.679-.046,2.507-.046h1.265c.437,0,.621.184.621.644v.966c0,.437-.184.621-.621.621h-3.4c-.874,0-1.725-.046-2.6-.046-.506,0-.506.253-.506.828s0,.851.506.851c.874,0,1.725-.069,2.6-.069H65.8c.874,0,1.725.069,2.6.069.483,0,.506-.23.506-.851,0-.6-.023-.828-.506-.828-.874,0-1.725.046-2.6.046H62.054c-.46,0-.644-.184-.644-.621v-.966c0-.46.184-.644.644-.644h1.863c.851,0,1.679.046,2.53.046.437,0,.46-.253.46-.759,0-.552-.023-.782-.483-.782-.828,0-1.679.046-2.507.046H61.962c-.368,0-.552-.161-.552-.552v-.874c0-.391.184-.552.552-.552h2.553c.874,0,1.748.046,2.622.046.46,0,.483-.207.483-.8,0-.621-.023-.828-.483-.828-.874,0-1.748.046-2.622.046H62.054c-.437,0-.621-.184-.621-.621,0-.552,0-.759.253-.966.184-.115.3-.184.3-.345,0-.276-.437-.276-.713-.3-.368-.046-1.1-.138-1.426-.138-.207,0-.368.069-.368.322v.23a7.253,7.253,0,0,1,.092,1.219c-.023.437-.207.6-.621.6H56.81c-.207,0-.391-.092-.391-.322,0-.069.023-.115.023-.184.184-.414.184-.483.483-.575.115-.046.276-.115.276-.253s-.161-.23-.276-.276a13.15,13.15,0,0,0-1.587-.46c-.207,0-.276.207-.322.368a17.544,17.544,0,0,1-2.484,5.267c-.092.138-.253.322-.253.483,0,.322.782.782,1.15.782.253,0,.391-.184.529-.368A16.3,16.3,0,0,0,55.338-5.934Zm23.023-9.821a10.619,10.619,0,0,0-1.4-2.07c-.207-.253-.506-.736-.851-.736s-1.2.414-1.2.736a.806.806,0,0,0,.207.391,24.126,24.126,0,0,1,1.472,1.955c.184.3.276.46.529.46S78.361-15.364,78.361-15.755Zm2.967,4.784a.62.62,0,0,1-.713-.483c-.184-.437-.391-.851-.6-1.265a.444.444,0,0,1-.069-.23c0-.253.207-.322.414-.345h4.416c.23.023.437.115.437.368a.571.571,0,0,1-.023.207c-.184.414-.391.828-.6,1.242a.807.807,0,0,1-.874.506Zm7.222-7.337a28.784,28.784,0,0,1-1.794,3.174.706.706,0,0,1-.667.345c-.437-.046-.621-.207-.621-.644v-1.679c0-.713.023-1.012.253-1.173.184-.115.3-.184.3-.322,0-.23-.23-.253-.414-.276-.322-.046-1.334-.161-1.633-.161-.207,0-.368.046-.368.3a.637.637,0,0,0,.023.207,9.188,9.188,0,0,1,.092,1.587v1.518c-.046.46-.184.6-.644.644h-.943c-.437-.046-.621-.184-.621-.644v-1.725c0-.69.023-.989.276-1.173.184-.138.3-.184.3-.345,0-.253-.391-.276-.713-.3a13.5,13.5,0,0,0-1.357-.115c-.207,0-.345.046-.345.3v.207a8.8,8.8,0,0,1,.092,1.518v1.633c0,.437-.184.644-.644.644H76.015c-.92,0-1.84-.069-2.783-.069-.46,0-.483.253-.483.828,0,.552.023.805.483.805.943,0,1.863-.069,2.783-.069h1.058c.483,0,.621.046.851.46.23.437.437.874.644,1.311a.433.433,0,0,1,.046.184c0,.276-.207.345-.437.368h-1.1c-.9,0-1.817-.046-2.714-.046-.46,0-.46.3-.46.782,0,.46,0,.759.46.759.9,0,1.817-.046,2.714-.046h4c.322,0,.46.138.46.483v.253c0,.322-.138.46-.46.46h-2.76c-.874,0-1.748-.046-2.622-.046-.483,0-.506.207-.506.782,0,.552.023.759.506.759.874,0,1.748-.046,2.622-.046h2.76c.322,0,.46.138.46.46v.253c0,.322-.138.483-.46.483H75.762c-.943,0-1.886-.069-2.829-.069-.483,0-.483.276-.483.8,0,.552,0,.8.483.8.943,0,1.886-.046,2.829-.046h3.611c.115,0,.253.046.253.184,0,.069-.046.115-.115.161A26.257,26.257,0,0,1,73.163-.6c-.391.138-.782.23-.782.529,0,.391.575,1.219.943,1.219a3.229,3.229,0,0,0,.805-.23,27.312,27.312,0,0,0,6.923-4,.409.409,0,0,1,.23-.092c.184,0,.23.161.253.322v.644c0,.989-.046,1.978-.046,2.967,0,.69.253.759,1.012.759.828,0,1.012-.092,1.012-.828,0-.966-.069-1.932-.069-2.9V-2.9c.023-.184.069-.322.276-.322a.321.321,0,0,1,.207.069A22.965,22.965,0,0,0,88.849.069a15.28,15.28,0,0,0,2.829,1.058c.414,0,.989-.759.989-1.219,0-.345-.529-.483-.782-.552a20.916,20.916,0,0,1-6.417-3.174A.239.239,0,0,1,85.376-4c0-.138.138-.184.253-.184h3.795c.943,0,1.886.046,2.829.046.46,0,.483-.253.483-.8s-.023-.8-.483-.8c-.943,0-1.886.069-2.829.069h-5.5c-.345,0-.483-.138-.483-.483v-.253c0-.322.138-.46.483-.46H86.8c.874,0,1.748.046,2.645.046.483,0,.483-.23.483-.759,0-.575-.023-.782-.506-.782-.874,0-1.748.046-2.622.046H83.927c-.345,0-.483-.138-.483-.46v-.253c0-.322.138-.483.483-.483h4.186c.9,0,1.817.046,2.714.046.46,0,.46-.3.46-.759,0-.483,0-.782-.46-.782-.92,0-1.817.046-2.714.046H86.871c-.207-.023-.391-.092-.391-.345a.671.671,0,0,1,.046-.207c.161-.322.3-.667.46-.989.115-.207.207-.207.414-.276.115-.023.3-.069.3-.207a.2.2,0,0,0-.069-.138c0-.023-.023-.046-.023-.069,0-.069.023-.069.069-.092h1.472c.92,0,1.863.069,2.783.069.483,0,.483-.253.483-.805,0-.575,0-.828-.483-.828-.92,0-1.863.069-2.783.069h-.161c-.184-.023-.368-.092-.368-.322a.371.371,0,0,1,.069-.207c.368-.575.713-1.265,1.058-1.84.092-.161.23-.161.437-.184.092,0,.3-.023.3-.207,0-.3-1.587-.989-1.679-.989C88.665-18.538,88.6-18.4,88.55-18.308Zm12.742,6.785a1.225,1.225,0,0,1-.161-.69c.023-.437.207-.575.621-.621.437,0,.989.046,1.357.046.46,0,.437-.322.437-.9,0-.6,0-.9-.437-.9-.368,0-.874.069-1.357.046-.437,0-.621-.184-.621-.621V-17c0-.805.023-1.127.276-1.288.207-.138.322-.184.322-.345,0-.207-.253-.253-.414-.276-.3-.023-1.426-.138-1.679-.138-.184,0-.368.046-.368.276a.783.783,0,0,0,.023.23,13.751,13.751,0,0,1,.092,1.978v1.38c0,.46-.207.644-.644.644H98.21c-.6,0-1.15-.046-1.495-.046-.437,0-.437.322-.437.9,0,.552,0,.9.437.9.322,0,.989-.046,1.495-.046h.322c.276,0,.506.115.506.414a.448.448,0,0,1-.023.184,28.523,28.523,0,0,1-2.967,6.877,2.053,2.053,0,0,0-.345.713c0,.23.667,1.035,1.035,1.035.23,0,.391-.276.483-.46a29.723,29.723,0,0,0,1.932-4.278.153.153,0,0,1,.115-.092c.069,0,.092.069.115.138v5.819c0,1.035-.069,2.093-.069,3.151,0,.69.161.782.943.782.759,0,.943-.069.943-.759,0-1.058-.069-2.116-.069-3.174V-8.556c0-.092.046-.184.138-.184a.155.155,0,0,1,.138.092c.23.391,1.334,2.369,1.725,2.369.3,0,.9-.851.9-1.127a.515.515,0,0,0-.184-.345A20.91,20.91,0,0,1,101.292-11.523Zm7.245,5.543a.155.155,0,0,1,.138-.092.163.163,0,0,1,.161.184v3.312c0,1.127-.069,2.231-.069,3.358,0,.621.253.667.92.667.759,0,.943-.069.943-.69,0-1.1-.069-2.208-.069-3.335V-5.8c0-.092.046-.184.138-.184a.174.174,0,0,1,.161.092,26.208,26.208,0,0,0,3.5,4.968c.23.23.966,1.127,1.265,1.127a1.789,1.789,0,0,0,1.15-1.035c0-.184-.253-.414-.391-.552A28.807,28.807,0,0,1,111.389-7.8.309.309,0,0,1,111.343-8c0-.253.184-.322.414-.322h1.656c.851,0,1.679.046,2.507.046.529,0,.529-.276.529-.9,0-.644,0-.9-.529-.9-.828,0-1.679.046-2.507.046h-2.208c-.46,0-.644-.184-.644-.644v-2.07c0-.437.184-.644.644-.644h1.426c.874,0,1.748.069,2.622.069.483,0,.483-.253.483-.9,0-.69,0-.9-.483-.9-.874,0-1.748.046-2.622.046h-1.426c-.46,0-.644-.184-.644-.644v-1.265c0-.828.023-1.2.276-1.357.138-.092.276-.161.276-.3,0-.23-.3-.253-.483-.276-.3-.023-1.242-.092-1.518-.092-.207,0-.368.023-.368.276v.23a9.726,9.726,0,0,1,.092,1.633v1.173c0,.437-.184.621-.644.621h-.966c-.092,0-.506,0-.506-.414a.391.391,0,0,1,.023-.161c.115-.483.184-.8.23-1.058.138-.644.138-.644.414-.805.092-.069.207-.138.207-.253,0-.207-.368-.276-.506-.3a11.175,11.175,0,0,0-1.334-.253c-.276,0-.276.253-.3.437A19.872,19.872,0,0,1,103.8-12.19a4.637,4.637,0,0,0-.253.644c0,.391.989.6,1.219.6.391,0,.552-.391,1.127-1.863a.726.726,0,0,1,.828-.575h1.472c.46,0,.644.207.644.644v2.07c0,.46-.184.644-.644.644h-1.38c-.851,0-1.679-.046-2.507-.046-.529,0-.529.253-.529.9,0,.621,0,.9.529.9.828,0,1.656-.046,2.507-.046h.805c.184,0,.391.069.391.322a.371.371,0,0,1-.069.207,25.82,25.82,0,0,1-5.29,6.325c-.161.138-.529.46-.529.69,0,.3.782,1.012,1.1,1.012a1.214,1.214,0,0,0,.667-.322A23.983,23.983,0,0,0,108.537-5.98Zm29.486-10.258a6.08,6.08,0,0,0-1.242-1.541c-.276-.276-1.311-1.426-1.61-1.426s-1.127.552-1.127.92c0,.161.184.322.3.437a29.038,29.038,0,0,1,1.978,2.139c.161.184.3.391.529.391C137.195-15.318,138.023-15.87,138.023-16.238ZM126.362-7.291c0-.46.207-.644.644-.644h.115c.782,0,1.541.046,2.3.046.46,0,.483-.23.483-.9s-.023-.9-.483-.9c-.759,0-1.518.046-2.3.046h-3.565c-.759,0-1.518-.046-2.3-.046-.46,0-.46.253-.46.9s0,.9.46.9c.782,0,1.541-.046,2.3-.046h.345c.46,0,.644.184.644.644V-2.76c0,.46-.138.667-.575.759-1.012.207-2.024.345-3.059.46-.276.023-.667.023-.667.322,0,.161.391,1.242.46,1.472.115.322.184.506.391.506.184,0,.23-.092.276-.23.138-.345.184-.345.828-.46,2.116-.345,6.348-1.219,8.349-1.794.391-.115.575-.184.575-.667,0-.276-.046-1.058-.46-1.058-.161,0-2.691.621-3.565.828a2.227,2.227,0,0,1-.276.046c-.322,0-.46-.253-.46-.529ZM132.3-15.41c-.046-.667-.138-1.748-.138-2.369,0-.23,0-.368.23-.483.184-.092.322-.138.322-.322,0-.276-.322-.3-.506-.322-.207-.023-1.472-.138-1.61-.138a.345.345,0,0,0-.391.368c0,.207.253,3.243.253,3.266,0,.437-.184.6-.6.6h-6.739c-.92,0-1.84-.046-2.76-.046-.483,0-.506.23-.506.92,0,.667.023.92.506.92.92,0,1.84-.069,2.76-.069h6.923c.46.046.644.161.713.621a37.735,37.735,0,0,0,2.576,9.5c.506,1.173,1.633,3.2,2.714,3.864a2.2,2.2,0,0,0,1.127.322c1.541,0,2.139-1.472,2.53-2.737a9.729,9.729,0,0,0,.391-2.139c0-.644-.69-.851-1.173-.851-.437,0-.483.3-.529.644-.069.69-.322,3.059-1.288,3.059-.6,0-1.334-1.334-1.587-1.817a33.259,33.259,0,0,1-2.9-9.844v-.115a.483.483,0,0,1,.552-.506h3.657c.92,0,1.84.069,2.76.069.483,0,.506-.23.506-.92s-.023-.92-.506-.92c-.92,0-1.84.046-2.76.046h-3.841C132.549-14.812,132.365-14.973,132.3-15.41Zm23.483,5.428c.736,0,1.564.069,2.208.069.483,0,.46-.414.46-.851,0-.414.046-.943-.437-.943-.736,0-1.472.046-2.231.046h-4.3c-.736,0-1.472-.046-2.208-.046-.46,0-.437.46-.437.828,0,.46-.046.966.437.966.736,0,1.472-.069,2.208-.069Zm-3.22,5.037a.458.458,0,0,1,.414-.253c.161-.023.322-.069.322-.253,0-.161-.23-.276-.46-.368a.117.117,0,0,1-.092-.115c0-.046.023-.069.092-.069h6.187c.943,0,1.863.046,2.806.046.483,0,.46-.345.46-.9,0-.529.023-.92-.483-.92-.92,0-1.84.046-2.783.046H148.166c-.943,0-1.863-.046-2.783-.046-.506,0-.483.368-.483.92,0,.529-.023.9.46.9.943,0,1.863-.046,2.806-.046h2.208c.092.023.437.023.437.368a.672.672,0,0,1-.046.207c-.621,1.311-1.265,2.622-1.955,3.91a.912.912,0,0,1-.828.529c-.575.069-1.173.092-1.748.115-.529,0-.575.092-.575.3,0,.115.253,1.127.3,1.311.115.3.161.644.414.644a.273.273,0,0,0,.23-.184c.161-.23.161-.253.345-.322,1.38-.069,3.151-.23,6.072-.506,1.817-.161,5.382-.575,5.635-.575a.879.879,0,0,1,.736.414c.161.23.3.414.414.575.368.552.483.713.759.713.322,0,1.311-.437,1.311-.828a20.2,20.2,0,0,0-1.955-2.806c-.621-.805-1.242-1.587-1.909-2.346a.7.7,0,0,0-.506-.3c-.368,0-1.265.506-1.265.851a6.189,6.189,0,0,0,.966,1.288c.115.115.414.437.414.621s-.161.276-.322.3c-2,.23-4,.391-6,.529a.305.305,0,0,1-.368-.322.541.541,0,0,1,.046-.184C151.547-2.76,152.053-3.841,152.559-4.945Zm1.472-11.408a27.565,27.565,0,0,0,5.727,5.359,16.135,16.135,0,0,0,3.427,1.932c.414,0,.9-.943.9-1.334,0-.253-.253-.345-.529-.483A24.275,24.275,0,0,1,154.9-17.94a.327.327,0,0,1-.046-.138.2.2,0,0,1,.184-.207c.092-.023.322-.069.322-.276,0-.3-.368-.322-.644-.414a13.407,13.407,0,0,0-1.449-.368c-.207,0-.276.161-.368.345a22.7,22.7,0,0,1-8.9,8.165c-.276.161-.6.276-.6.552,0,.391.575,1.242.989,1.242a8.8,8.8,0,0,0,2.185-1.173,27.041,27.041,0,0,0,6.693-6.141.512.512,0,0,1,.391-.207A.468.468,0,0,1,154.031-16.353Zm28.681,4.14c-.46,0-.644-.184-.644-.644V-17c0-.69.023-1.058.276-1.219.161-.115.276-.184.276-.345,0-.23-.253-.253-.414-.276-.345-.046-1.449-.161-1.725-.161-.207,0-.391.069-.391.3,0,.069.023.161.023.23a18.006,18.006,0,0,1,.092,2v3.611c0,.46-.184.644-.644.644h-.483c-.851,0-1.7-.046-2.553-.046-.506,0-.506.23-.506.92,0,.667,0,.92.483.92.874,0,1.725-.069,2.576-.069h.483c.46,0,.644.207.644.644v7.912c0,.46-.184.644-.644.644h-2.346c-.851,0-1.725-.046-2.576-.046-.483,0-.483.253-.483.92,0,.69,0,.92.483.92.851,0,1.725-.046,2.576-.046h7.222c.851,0,1.7.046,2.576.046.483,0,.483-.23.483-.92,0-.667.023-.92-.483-.92-.874,0-1.725.046-2.576.046h-1.725c-.46,0-.644-.184-.644-.644V-9.844c0-.437.184-.644.644-.644h.8c.851,0,1.725.069,2.576.069.46,0,.506-.207.506-.92s-.023-.92-.506-.92c-.851,0-1.725.046-2.576.046ZM172.661-6.785c.391.414,2.254,2.323,2.691,2.323.391,0,1.058-.782,1.058-1.15,0-.207-.23-.368-.368-.483a31.362,31.362,0,0,1-2.806-2.392.639.639,0,0,1-.23-.46.675.675,0,0,1,.161-.437c.6-.759,2.576-3.381,2.576-4.232a1.389,1.389,0,0,0-1.311-1.242c-.506,0-1.012.023-1.518,0-.46-.023-.621-.184-.621-.621v-1.61c0-.736.023-.989.276-1.15.207-.138.345-.207.345-.414,0-.276-.391-.3-.759-.322-.391-.046-1.058-.115-1.426-.115-.207,0-.391.046-.391.3,0,.069.023.161.023.23a8.928,8.928,0,0,1,.092,1.587v1.495c0,.437-.184.621-.644.621-.667,0-1.357-.046-2.024-.046-.437,0-.483.207-.483.92,0,.69.046.92.483.92.782,0,1.587-.046,2.369-.046h2.714c.345,0,.6.023.6.184a8.432,8.432,0,0,1-1.035,1.7,28.423,28.423,0,0,1-5.244,5.267c-.138.115-.322.253-.322.46,0,.322.69,1.081,1.081,1.081.46,0,1.656-1.173,2.024-1.518a.292.292,0,0,1,.207-.092c.161,0,.23.161.23.3V-1.84c0,.874-.046,1.725-.046,2.6,0,.667.184.736.966.736s.966-.069.966-.759c0-.874-.046-1.725-.046-2.576V-6.6c0-.138.046-.276.207-.276A.291.291,0,0,1,172.661-6.785Z" transform="translate(111.049 50.177)"/>
    <path id="パス_43950" data-name="パス 43950" d="M9.394-9.432q.026,0,.026.078t-.026.078a.962.962,0,0,0-.808.371A1.708,1.708,0,0,0,8.3-7.842v6.737q0,.039-.065.052a.1.1,0,0,1-.091-.013l-6.111-7.1v5.3a1.737,1.737,0,0,0,.274,1.055.933.933,0,0,0,.795.365q.026,0,.026.078T3.1-1.288q-.352,0-.534-.013l-.691-.013L1.107-1.3q-.208.013-.6.013-.039,0-.039-.078t.039-.078a1.069,1.069,0,0,0,.867-.365A1.6,1.6,0,0,0,1.68-2.865V-8.572a2.7,2.7,0,0,0-.658-.547,1.272,1.272,0,0,0-.606-.156q-.026,0-.026-.078t.026-.078l.521.013q.169.013.482.013l.834-.013q.156-.013.378-.013a.212.212,0,0,1,.156.052,1.553,1.553,0,0,1,.156.208l.313.417L7.948-3.23V-7.842A1.768,1.768,0,0,0,7.674-8.9a.913.913,0,0,0-.782-.371q-.026,0-.026-.078t.026-.078l.534.013q.417.026.691.026t.7-.026ZM19.636-1.444q.065,0,.065.078t-.065.078q-.248,0-.795-.026t-.795-.026q-.326,0-.769.026t-.691.026q-.052,0-.052-.078t.052-.078a1.35,1.35,0,0,0,.554-.085.289.289,0,0,0,.176-.28,1.892,1.892,0,0,0-.222-.665l-.99-2.007H12.952l-.625,1.407a1.8,1.8,0,0,0-.169.7.8.8,0,0,0,.326.691,1.54,1.54,0,0,0,.912.235q.065,0,.065.078t-.065.078q-.235,0-.678-.026-.5-.026-.86-.026t-.821.026q-.417.026-.691.026-.065,0-.065-.078t.065-.078a1.206,1.206,0,0,0,.612-.143A1.506,1.506,0,0,0,11.44-2.1,9.207,9.207,0,0,0,12-3.2L14.8-9.51q.026-.039.117-.039t.1.039l3.193,6.437a6.184,6.184,0,0,0,.762,1.284A.88.88,0,0,0,19.636-1.444ZM13.095-4.806h2.854l-1.5-3.036ZM25.7-1.132a5.523,5.523,0,0,1-2.561-.56A4.031,4.031,0,0,1,21.474-3.21,4.069,4.069,0,0,1,20.9-5.34a3.863,3.863,0,0,1,.652-2.215,4.266,4.266,0,0,1,1.8-1.492,6.069,6.069,0,0,1,2.567-.528,7.637,7.637,0,0,1,1.27.1,3.631,3.631,0,0,1,1.01.3.3.3,0,0,1,.137.091.766.766,0,0,1,.033.208l.169,1.72q0,.039-.072.052t-.085-.039a3.644,3.644,0,0,0-1-1.505A2.633,2.633,0,0,0,25.5-9.328a3.044,3.044,0,0,0-1.635.456,3.135,3.135,0,0,0-1.16,1.31,4.387,4.387,0,0,0-.423,1.974,4.949,4.949,0,0,0,.463,2.157A3.684,3.684,0,0,0,24.06-1.9a3.492,3.492,0,0,0,1.961.56,2.338,2.338,0,0,0,.873-.13.835.835,0,0,0,.456-.469,2.651,2.651,0,0,0,.143-.99,3.854,3.854,0,0,0-.078-.945.512.512,0,0,0-.345-.358,3.257,3.257,0,0,0-.932-.091q-.078,0-.078-.1a.137.137,0,0,1,.02-.072.055.055,0,0,1,.046-.033q1.082.065,1.733.065t1.355-.039a.055.055,0,0,1,.046.033.117.117,0,0,1,.02.059q0,.091-.065.091a.494.494,0,0,0-.365.085.653.653,0,0,0-.137.4q-.033.3-.033,1.042a5.235,5.235,0,0,0,.046.834,2.426,2.426,0,0,1,.046.313.151.151,0,0,1-.026.1.3.3,0,0,1-.117.052A13.678,13.678,0,0,1,25.7-1.132Zm14.06-.313q.065,0,.065.078t-.065.078q-.248,0-.795-.026t-.795-.026q-.326,0-.769.026t-.691.026q-.052,0-.052-.078t.052-.078a1.35,1.35,0,0,0,.554-.085.289.289,0,0,0,.176-.28,1.892,1.892,0,0,0-.222-.665l-.99-2.007H33.071l-.625,1.407a1.8,1.8,0,0,0-.169.7.8.8,0,0,0,.326.691,1.54,1.54,0,0,0,.912.235q.065,0,.065.078t-.065.078q-.235,0-.678-.026-.5-.026-.86-.026t-.821.026q-.417.026-.691.026-.065,0-.065-.078t.065-.078a1.206,1.206,0,0,0,.612-.143,1.506,1.506,0,0,0,.482-.515,9.206,9.206,0,0,0,.56-1.1l2.8-6.307q.026-.039.117-.039t.1.039l3.193,6.437A6.184,6.184,0,0,0,39.1-1.79.88.88,0,0,0,39.756-1.444ZM33.214-4.806h2.854l-1.5-3.036Zm9.161-4.352a1.825,1.825,0,0,0-1.31.489,3.157,3.157,0,0,0-.788,1.479q0,.026-.072.026T40.134-7.2q.052-.508.117-1.31t.065-1.205q0-.065.072-.065t.072.065q0,.287.73.287,1.121.039,2.619.039.769,0,1.629-.026l.886-.013a2.883,2.883,0,0,0,.723-.065.4.4,0,0,0,.293-.261.07.07,0,0,1,.078-.052q.065,0,.065.052-.039.4-.078,1.225T47.366-7.2q0,.039-.072.039T47.209-7.2A2.469,2.469,0,0,0,46.6-8.683a1.774,1.774,0,0,0-1.3-.476,1.665,1.665,0,0,0-.541.065.371.371,0,0,0-.235.228,1.644,1.644,0,0,0-.059.515v6.007a1.6,1.6,0,0,0,.078.586.443.443,0,0,0,.313.248,3.041,3.041,0,0,0,.743.065q.039,0,.039.078t-.039.078q-.456,0-.717-.013l-1.069-.013L42.792-1.3q-.274.013-.756.013-.026,0-.026-.078t.026-.078a3.127,3.127,0,0,0,.749-.065.463.463,0,0,0,.326-.254,1.5,1.5,0,0,0,.085-.58V-8.377a1.381,1.381,0,0,0-.065-.5.4.4,0,0,0-.235-.222A1.549,1.549,0,0,0,42.375-9.158ZM57.1-1.444q.065,0,.065.078t-.065.078q-.248,0-.795-.026T55.51-1.34q-.326,0-.769.026t-.691.026Q54-1.288,54-1.366t.052-.078a1.35,1.35,0,0,0,.554-.085.289.289,0,0,0,.176-.28,1.892,1.892,0,0,0-.222-.665l-.99-2.007H50.415l-.625,1.407a1.8,1.8,0,0,0-.169.7.8.8,0,0,0,.326.691,1.54,1.54,0,0,0,.912.235q.065,0,.065.078t-.065.078q-.235,0-.678-.026-.5-.026-.86-.026t-.821.026q-.417.026-.691.026-.065,0-.065-.078t.065-.078a1.206,1.206,0,0,0,.612-.143A1.506,1.506,0,0,0,48.9-2.1a9.206,9.206,0,0,0,.56-1.1l2.8-6.307q.026-.039.117-.039t.1.039l3.193,6.437a6.184,6.184,0,0,0,.762,1.284A.88.88,0,0,0,57.1-1.444ZM50.558-4.806h2.854l-1.5-3.036ZM67.146-1.132a5.523,5.523,0,0,1-2.561-.56A4.031,4.031,0,0,1,62.924-3.21a4.069,4.069,0,0,1-.573-2.131A3.863,3.863,0,0,1,63-7.556a4.266,4.266,0,0,1,1.8-1.492,6.069,6.069,0,0,1,2.567-.528,7.637,7.637,0,0,1,1.27.1,3.631,3.631,0,0,1,1.01.3.3.3,0,0,1,.137.091.766.766,0,0,1,.033.208l.169,1.72q0,.039-.072.052t-.085-.039a3.644,3.644,0,0,0-1-1.505,2.634,2.634,0,0,0-1.876-.684,3.044,3.044,0,0,0-1.635.456,3.135,3.135,0,0,0-1.16,1.31,4.387,4.387,0,0,0-.423,1.974,4.949,4.949,0,0,0,.463,2.157A3.684,3.684,0,0,0,65.511-1.9a3.492,3.492,0,0,0,1.961.56,2.338,2.338,0,0,0,.873-.13.835.835,0,0,0,.456-.469,2.651,2.651,0,0,0,.143-.99,3.853,3.853,0,0,0-.078-.945.512.512,0,0,0-.345-.358,3.257,3.257,0,0,0-.932-.091q-.078,0-.078-.1a.137.137,0,0,1,.02-.072.055.055,0,0,1,.046-.033q1.082.065,1.733.065t1.355-.039a.055.055,0,0,1,.046.033.117.117,0,0,1,.02.059q0,.091-.065.091a.494.494,0,0,0-.365.085.653.653,0,0,0-.137.4q-.033.3-.033,1.042a5.235,5.235,0,0,0,.046.834,2.427,2.427,0,0,1,.046.313.151.151,0,0,1-.026.1.3.3,0,0,1-.117.052A13.678,13.678,0,0,1,67.146-1.132Zm13.9-.313q.039,0,.039.078t-.039.078h-2.1q-.3,0-1.114-1.042a33.753,33.753,0,0,1-1.974-2.919q-.287.026-.443.026-.287,0-.678-.026v2.906a1.736,1.736,0,0,0,.072.586.412.412,0,0,0,.274.248,2.3,2.3,0,0,0,.645.065q.026,0,.026.078t-.026.078q-.43,0-.665-.013L74.1-1.314l-.938.013q-.248.013-.678.013-.039,0-.039-.078t.039-.078a2.3,2.3,0,0,0,.645-.065.431.431,0,0,0,.28-.254,1.609,1.609,0,0,0,.078-.58V-8.377a1.684,1.684,0,0,0-.072-.573.432.432,0,0,0-.28-.254,2.106,2.106,0,0,0-.639-.072q-.026,0-.026-.078t.026-.078l.678.013q.573.026.925.026.43,0,.938-.039.169-.013.41-.026t.541-.013a2.977,2.977,0,0,1,1.753.443,1.436,1.436,0,0,1,.619,1.238,2.211,2.211,0,0,1-.4,1.29,2.827,2.827,0,0,1-1.062.912q1.069,1.577,1.785,2.463a7.065,7.065,0,0,0,1.271,1.284A1.868,1.868,0,0,0,81.05-1.444ZM74.743-5.6a4.682,4.682,0,0,0,.756.052,1.524,1.524,0,0,0,1.212-.423,2.068,2.068,0,0,0,.365-1.362,2.3,2.3,0,0,0-.358-1.472,1.291,1.291,0,0,0-1.036-.417,1.094,1.094,0,0,0-.723.189.883.883,0,0,0-.215.684Zm11.128,4.47A4.11,4.11,0,0,1,83.715-1.7a3.883,3.883,0,0,1-1.459-1.538,4.45,4.45,0,0,1-.515-2.117,3.879,3.879,0,0,1,.678-2.3,4.246,4.246,0,0,1,1.74-1.44,5.2,5.2,0,0,1,2.17-.482A4.054,4.054,0,0,1,88.5-9a3.93,3.93,0,0,1,1.44,1.531,4.268,4.268,0,0,1,.5,2.02,4,4,0,0,1-.625,2.176A4.494,4.494,0,0,1,88.145-1.7,4.665,4.665,0,0,1,85.871-1.132Zm.443-.313a2.423,2.423,0,0,0,1.4-.423,2.829,2.829,0,0,0,.977-1.244,4.862,4.862,0,0,0,.358-1.955,5.531,5.531,0,0,0-.4-2.15A3.4,3.4,0,0,0,87.52-8.7a2.861,2.861,0,0,0-1.727-.534,2.332,2.332,0,0,0-1.961.906,4.023,4.023,0,0,0-.7,2.508,5.869,5.869,0,0,0,.41,2.241,3.74,3.74,0,0,0,1.134,1.57A2.582,2.582,0,0,0,86.314-1.444Zm12.992-6.4A1.634,1.634,0,0,0,99-8.9a1.067,1.067,0,0,0-.88-.378q-.026,0-.026-.078t.026-.078l.6.013q.5.026.782.026.235,0,.7-.026l.573-.013q.026,0,.026.078t-.026.078a.924.924,0,0,0-.788.378,1.742,1.742,0,0,0-.28,1.055v3.649a3.246,3.246,0,0,1-.4,1.635,2.7,2.7,0,0,1-1.121,1.075,3.564,3.564,0,0,1-1.674.378,3.737,3.737,0,0,1-1.694-.371A2.717,2.717,0,0,1,93.67-2.545a3.164,3.164,0,0,1-.41-1.635v-4.2a1.553,1.553,0,0,0-.078-.573A.453.453,0,0,0,92.9-9.2a2.039,2.039,0,0,0-.632-.072q-.039,0-.039-.078t.039-.078l.678.013q.573.026.925.026.391,0,.964-.026l.652-.013q.039,0,.039.078t-.039.078a1.94,1.94,0,0,0-.639.078.451.451,0,0,0-.28.267,1.744,1.744,0,0,0-.072.58v3.714a3.516,3.516,0,0,0,.645,2.313,2.235,2.235,0,0,0,1.8.762,2.23,2.23,0,0,0,1.733-.684,2.765,2.765,0,0,0,.625-1.935ZM104.492-2.4a1.4,1.4,0,0,0,.1.606.567.567,0,0,0,.378.267,3.573,3.573,0,0,0,.88.078q.039,0,.039.078t-.039.078q-.534,0-.834-.013l-1.134-.013-.938.013q-.248.013-.678.013-.039,0-.039-.078t.039-.078a2.222,2.222,0,0,0,.639-.065.411.411,0,0,0,.267-.248,1.737,1.737,0,0,0,.072-.586V-8.377a1.684,1.684,0,0,0-.072-.573A.431.431,0,0,0,102.9-9.2a2.039,2.039,0,0,0-.632-.072q-.039,0-.039-.078t.039-.078l.678.013q.573.026.925.026.3,0,.73-.039.156-.013.423-.026t.632-.013a3.391,3.391,0,0,1,2.039.547,1.944,1.944,0,0,1,.749,1.681,2.281,2.281,0,0,1-.424,1.394,2.624,2.624,0,0,1-1.082.86,3.346,3.346,0,0,1-1.349.287,2.447,2.447,0,0,1-.612-.065q-.039,0-.039-.065a.173.173,0,0,1,.02-.078q.02-.039.046-.026a1.879,1.879,0,0,0,.456.052,1.443,1.443,0,0,0,1.147-.56,2.432,2.432,0,0,0,.469-1.6,2.392,2.392,0,0,0-.482-1.6,1.652,1.652,0,0,0-1.329-.567,1.34,1.34,0,0,0-.476.065.392.392,0,0,0-.228.241,1.72,1.72,0,0,0-.065.554Z" transform="translate(112.746 71.124)"/>
    <g id="グループ_212" data-name="グループ 212" transform="translate(49 21.725)">
      <g id="グループ_211" data-name="グループ 211" clip-path="url(#clip-path)">
        <path id="パス_43952" data-name="パス 43952" d="M36.8,45.667a23.933,23.933,0,0,1-6.673,5.618,24.822,24.822,0,0,1-11.2,3.655A17.124,17.124,0,0,1,1.912,44.222C-.759,37.579-.434,30.9,1.666,24.2a.562.562,0,0,1,.481-.5,24.918,24.918,0,0,0-.759,9.156c.615,8.516,6.391,16.2,14.86,18.306a2.989,2.989,0,0,0,3.2-.856C24.756,45,30.131,39.772,35.49,34.525c3.258-3.189,6.506-6.39,9.809-9.531a2.954,2.954,0,0,0,1.025-2.839c-.211-1.216-.44-2.429-.645-3.647-.189-1.126-.6-.969-1.271-.307q-5.79,5.69-11.624,11.336c-.275.267-.546.539-.833.793a.54.54,0,0,1-.8.006.553.553,0,0,1-.04-.889c.625-.64,1.254-1.277,1.894-1.9,3.657-3.573,7.307-7.155,10.99-10.7a1.486,1.486,0,0,0,.384-2.008c-.5-1-1.076-1.933-1.629-2.892-.489-.847-.887-.917-1.622-.186-3.05,3.036-6.158,6.014-9.244,9.013a7.245,7.245,0,0,1-.83.795c-.432.3-.763,1.2-1.436.552-.69-.667.158-1.053.523-1.417,1.66-1.653,3.368-3.259,5.045-4.894s3.3-3.328,5.027-4.917c.852-.786.779-1.332-.025-2.069C34.4,3.507,27.713,2.175,20.249,4.305a24.457,24.457,0,0,0-9.409,5.26c-.243.212-.414.545-.937.563a10.24,10.24,0,0,1,2.164-2.342A28.313,28.313,0,0,1,25.359.492C35.344-1.631,43.591,3.224,46.6,12.99c1.889,6.131,1.267,12.2-.911,18.17.14-.823.3-1.642.415-2.469a5.67,5.67,0,0,0,.084-2.708c-.945.844-1.844,1.587-2.675,2.4q-9.011,8.8-18,17.614c-1.584,1.548-3.2,3.059-4.79,4.6-.252.246-.715.618-.553.888.195.323.684.3,1.061.286a23.625,23.625,0,0,0,12.624-3.994c1-.676,1.965-1.408,2.946-2.114M24.118,5.493c-.167.033-.337.05-.5.09a9.421,9.421,0,0,0-6.924,9.179c.061,1.65.286,1.845,1.894,1.632a9.128,9.128,0,0,0,7.889-8.955c.008-2.194-.206-2.37-2.357-1.946M7.411,12.082c-1.042-.139-1.436.188-1.573,1.238-.56,4.283,2.8,8.805,7.3,9.716,2.182.442,2.4.263,2.375-1.9a9.138,9.138,0,0,0-8.1-9.05M24.693,15.8c-4.45.413-8.375,5.105-7.982,9.543.122,1.383.487,1.665,1.888,1.463a9.151,9.151,0,0,0,7.865-8.968c.014-1.987-.16-2.188-1.771-2.038m.758,11.146a9.179,9.179,0,0,0-8.692,9.913c.055.857.44,1.285,1.408,1.185a9.309,9.309,0,0,0,8.288-9.171c-.2-.642.472-1.993-1-1.927M7.343,22.862c-1-.134-1.352.186-1.491,1.16-.607,4.247,2.678,8.735,7.209,9.762,2.188.5,2.484.26,2.44-1.943a9.164,9.164,0,0,0-8.158-8.98M7.288,34.34c-.939-.128-1.29.131-1.416,1.074-.65,4.849,3.665,9.905,8.575,10.015.651.015.96-.245.984-.87.015-.382,0-.766,0-1.149a9,9,0,0,0-8.146-9.07" transform="translate(0 0)" fill="url(#linear-gradient)"/>
      </g>
    </g>
  </g>
</svg>
