<svg xmlns="http://www.w3.org/2000/svg" width="315.065" height="710.97" viewBox="0 0 315.065 710.97">
  <path id="パス_50730" data-name="パス 50730" d="M136.3-2.34q.78,0,.78,1.17T136.3,0q-3.7,0-11.5-.39T113.49-.78q-4.29,0-10.92.39Q96.33,0,93.015,0q-.78,0-.78-1.17t.78-1.17q7.215,0,10.53-1.365a4.768,4.768,0,0,0,3.315-4.68q0-2.73-2.535-8.385L86.97-53.625H40.56L28.275-24.765q-2.73,6.63-2.73,10.725,0,6.045,4.777,8.872T44.655-2.34q.975,0,.975,1.17T44.655,0q-3.51,0-10.14-.39Q27.1-.78,21.645-.78q-5.07,0-11.7.39Q4.095,0,.2,0-.78,0-.78-1.17T.2-2.34A19.313,19.313,0,0,0,9.458-4.388,21.1,21.1,0,0,0,16.673-11.6,94.663,94.663,0,0,0,24.18-26.52l41.145-97.11a1.518,1.518,0,0,1,1.365-.585q.975,0,1.17.585l46.02,96.915q6.63,14.43,11.31,19.4A14.759,14.759,0,0,0,136.3-2.34ZM42.12-57.525h43.1L62.4-105.69ZM217.23-68.64q15.405,1.17,24.862,10.238A29.937,29.937,0,0,1,251.55-35.88a35.474,35.474,0,0,1-5.07,18.72A35.776,35.776,0,0,1,232.538-4,41.072,41.072,0,0,1,212.745.78Q206.31.78,198.705.2q-2.73-.2-6.435-.39t-8.19-.2l-13.26.2q-3.51.2-9.945.2-.39,0-.39-1.17t.39-1.17A39.53,39.53,0,0,0,171.6-3.412a7.586,7.586,0,0,0,4.875-3.8q1.365-2.73,1.365-8.58V-106.08q0-5.85-1.267-8.58a7.2,7.2,0,0,0-4.68-3.8q-3.412-1.072-10.628-1.072-.585,0-.585-1.17t.585-1.17l9.555.195q8.19.39,13.26.39,3.51,0,6.533-.2t5.167-.39q6.045-.585,11.31-.585,16.38,0,24.57,7.118t8.19,18.622a25.442,25.442,0,0,1-6.045,16.673Q227.76-72.735,217.23-68.64ZM203-119.535a24.735,24.735,0,0,0-7.6.877,6.141,6.141,0,0,0-3.705,3.705q-1.17,2.828-1.17,9.262v37.05l8.775.195q14.235,0,21.06-7.312t6.825-19.4q0-10.92-5.947-17.647T203-119.535ZM209.82-2.73q14.235,0,21.158-7.312T237.9-31q0-14.82-8.677-23.985t-23.887-9.36q-6.24-.195-14.82.39V-15.8A16.817,16.817,0,0,0,191.978-8q1.462,2.73,5.655,4T209.82-2.73ZM348.27,2.34Q330.135,2.34,316-6.142a58.1,58.1,0,0,1-21.84-23.01,66.6,66.6,0,0,1-7.7-31.687q0-20.085,10.14-34.417A63.541,63.541,0,0,1,322.628-116.8,77.8,77.8,0,0,1,355.1-124.02q18.525,0,32.565,8.677A58.812,58.812,0,0,1,409.207-92.43a63.87,63.87,0,0,1,7.508,30.225,59.778,59.778,0,0,1-9.36,32.565A67.248,67.248,0,0,1,382.3-6.24,69.814,69.814,0,0,1,348.27,2.34ZM355.1-1.755A45.21,45.21,0,0,0,378.982-8.19q10.627-6.435,16.77-18.915t6.142-29.64q0-18.33-6.825-32.565a53.108,53.108,0,0,0-19.208-22.23q-12.383-7.995-28.957-7.995-21.45,0-33.54,13.845t-12.09,38.025A80.324,80.324,0,0,0,308.1-34.222a57.183,57.183,0,0,0,19.11,23.79A47.153,47.153,0,0,0,355.1-1.755Zm198.315-98.67q0-19.11-16.965-19.11-.585,0-.585-1.17t.585-1.17l8.385.195q7.02.39,11.115.39,3.315,0,9.555-.39l8.19-.195q.39,0,.39,1.17t-.39,1.17q-15.6,0-15.6,19.11v55.38q0,22.425-12.48,35T512.07,2.535q-14.43,0-25.253-5.655a40.43,40.43,0,0,1-16.77-16.088Q464.1-29.64,464.1-43.68v-62.4q0-5.85-1.17-8.58a6.868,6.868,0,0,0-4.582-3.8q-3.412-1.072-10.823-1.072-.39,0-.39-1.17t.39-1.17l9.555.195q8.19.39,13.26.39,5.46,0,13.65-.39l9.36-.195q.585,0,.585,1.17t-.585,1.17q-7.215,0-10.725,1.17a7.141,7.141,0,0,0-4.68,4q-1.17,2.827-1.17,8.677v55.185q0,22.815,10.432,35T516.36-3.315q17.55,0,27.3-11.018t9.75-30.518Zm77.025-17.94q-12.285,0-18.427,6.24T603.135-90.87q0,.39-1.073.39t-1.073-.39q.78-7.02,1.755-18.33t.975-16.965q0-.975,1.073-.975t1.072.975q0,4.29,10.53,4.29,16.575.585,39.2.585,11.5,0,24.375-.39l13.26-.195a41.017,41.017,0,0,0,10.432-.975,5.975,5.975,0,0,0,4.388-3.9,1.045,1.045,0,0,1,1.17-.78q.975,0,.975.78-.585,5.655-1.17,17.16t-.585,18.72q0,.39-1.17.39t-1.17-.39q-.585-15.21-6.24-21.353t-18.72-6.142a68.695,68.695,0,0,0-12.48.78q-3.705.78-5.07,3.315t-1.365,8.58v89.9q0,6.045,1.365,8.775t5.265,3.7a55.59,55.59,0,0,0,12.285.975q.585,0,.585,1.17T681.135,0Q674.7,0,670.8-.2l-15.21-.2-14.625.2q-3.9.2-10.725.2-.39,0-.39-1.17t.39-1.17a55.591,55.591,0,0,0,12.285-.975,7.73,7.73,0,0,0,5.362-3.8q1.463-2.827,1.463-8.678V-106.08q0-6.045-1.365-8.482t-5.07-3.12A78.342,78.342,0,0,0,630.435-118.365ZM111.54,84.575q0-19.11-16.965-19.11-.585,0-.585-1.17t.585-1.17l8.385.195q7.02.39,11.115.39,3.315,0,9.555-.39l8.19-.195q.39,0,.39,1.17t-.39,1.17q-15.6,0-15.6,19.11v55.38q0,22.425-12.48,35T70.2,187.535q-14.43,0-25.253-5.655a40.43,40.43,0,0,1-16.77-16.088Q22.23,155.36,22.23,141.32V78.92q0-5.85-1.17-8.58a6.868,6.868,0,0,0-4.583-3.8q-3.413-1.072-10.823-1.072-.39,0-.39-1.17t.39-1.17l9.555.195q8.19.39,13.26.39,5.46,0,13.65-.39l9.36-.195q.585,0,.585,1.17t-.585,1.17q-7.215,0-10.725,1.17a7.141,7.141,0,0,0-4.68,4q-1.17,2.827-1.17,8.677v55.185q0,22.815,10.432,35T74.49,181.685q17.55,0,27.3-11.018t9.75-30.518Zm67.08,1.365a23.644,23.644,0,0,0,3.705,13.26,34.939,34.939,0,0,0,9.068,9.458q5.362,3.8,14.723,9.457,10.335,6.24,15.893,10.335a37.865,37.865,0,0,1,9.555,10.433,27.739,27.739,0,0,1,4,15.112,31.112,31.112,0,0,1-18.427,28.958q-9.067,4.388-21.743,4.387a56.359,56.359,0,0,1-27.495-6.825,2.8,2.8,0,0,1-1.268-1.365,10.986,10.986,0,0,1-.488-2.34L163.6,150.29q-.195-.78.878-.975t1.268.585a55.933,55.933,0,0,0,11.6,24.18q8.482,10.14,22.522,10.14,9.75,0,16.478-5.363t6.727-17.062a28.78,28.78,0,0,0-3.9-15.21,37.407,37.407,0,0,0-9.457-10.628,167.855,167.855,0,0,0-15.113-9.847,169.662,169.662,0,0,1-14.723-9.75,35.845,35.845,0,0,1-9.067-10.335A28.11,28.11,0,0,1,167.115,91.4a27.082,27.082,0,0,1,5.167-16.673,31.308,31.308,0,0,1,13.455-10.335,45.891,45.891,0,0,1,17.648-3.412A59.22,59.22,0,0,1,226.2,65.66q2.925.975,2.925,3.315L230.49,91.4q0,.78-.975.78a1.045,1.045,0,0,1-1.17-.78,39.926,39.926,0,0,0-8.385-18.818q-6.825-8.677-19.695-8.677-10.92,0-16.283,6.337A23.467,23.467,0,0,0,178.62,85.94Z" transform="translate(187.535 0.78) rotate(90)" fill="#fff" opacity="0.44"/>
</svg>
