<svg xmlns="http://www.w3.org/2000/svg" width="50.68" height="388.22" viewBox="0 0 50.68 388.22">
  <path id="products_mugibase-txt" d="M-193.025,0V-49.21h6.72l19.95,31.92h-3.85l19.88-31.92h6.72V0h-9.45V-32.9l1.82.56L-165.1-10.08h-6.44L-185.4-32.34l1.89-.56V0Zm84.49.7A20.6,20.6,0,0,1-118.86-1.855a18.7,18.7,0,0,1-7.1-7.035,19.907,19.907,0,0,1-2.59-10.15V-49.21h9.52v30.45a11.21,11.21,0,0,0,1.365,5.67,9.393,9.393,0,0,0,3.78,3.675,11.15,11.15,0,0,0,5.355,1.3,10.694,10.694,0,0,0,5.32-1.3A9.587,9.587,0,0,0-99.54-13.09a11.064,11.064,0,0,0,1.365-5.6V-49.21h9.59v30.24a19.718,19.718,0,0,1-2.59,10.115,18.927,18.927,0,0,1-7.035,7A20.352,20.352,0,0,1-108.535.7Zm57.68,0A25.145,25.145,0,0,1-60.69-1.225,24.629,24.629,0,0,1-68.74-6.65a25.3,25.3,0,0,1-5.39-8.085,25.325,25.325,0,0,1-1.925-9.9,25.11,25.11,0,0,1,1.96-9.975,25.094,25.094,0,0,1,5.46-8.05,25.009,25.009,0,0,1,8.19-5.39A26.471,26.471,0,0,1-50.3-49.98a27.226,27.226,0,0,1,11.2,2.275,22.554,22.554,0,0,1,8.47,6.405l-6.44,6.44a15.365,15.365,0,0,0-5.74-4.62,17.569,17.569,0,0,0-7.56-1.61,16.391,16.391,0,0,0-8.295,2.065,14.648,14.648,0,0,0-5.635,5.74,17.452,17.452,0,0,0-2.03,8.575,18.111,18.111,0,0,0,2,8.645,14.831,14.831,0,0,0,5.46,5.845,15.023,15.023,0,0,0,7.945,2.1,16.92,16.92,0,0,0,7.91-1.715,11.683,11.683,0,0,0,5.04-5.04,17.342,17.342,0,0,0,1.75-8.155L-30-18.76l-21.49-.21v-8.26h25.06v1.33q0,8.82-3.15,14.735a21.067,21.067,0,0,1-8.645,8.89A26.119,26.119,0,0,1-50.855.7Zm37.31-.7V-49.21h9.52V0Zm32.2,0V-7.77h12.81a6.9,6.9,0,0,0,5.355-2.1,7.11,7.11,0,0,0,1.925-4.97,7.6,7.6,0,0,0-.84-3.57,6.232,6.232,0,0,0-2.485-2.555,7.814,7.814,0,0,0-3.955-.945H18.655v-7.7h11.76a7.2,7.2,0,0,0,4.725-1.47,5.381,5.381,0,0,0,1.785-4.41,5.467,5.467,0,0,0-1.785-4.48,7.2,7.2,0,0,0-4.725-1.47H18.655v-7.77h12.88a17.222,17.222,0,0,1,8.225,1.785,12.343,12.343,0,0,1,5.005,4.69,12.433,12.433,0,0,1,1.68,6.335,10.91,10.91,0,0,1-2.555,7.245,15.079,15.079,0,0,1-7.455,4.515l.42-3.08a16.527,16.527,0,0,1,8.435,5.075,12.774,12.774,0,0,1,2.975,8.505A13.469,13.469,0,0,1,46.34-7.035a13.869,13.869,0,0,1-5.6,5.11A19.034,19.034,0,0,1,31.815,0Zm-7,0V-49.21H21.1V0Zm46.13,0,19.81-49.21h7.77L105.1,0H94.955L79.695-40.39h3.5L67.725,0Zm10.5-9.17v-7.98h26.46v7.98ZM129.815.7A23.388,23.388,0,0,1,119.63-1.33a23.164,23.164,0,0,1-7.665-6.09l6.3-6.3a15.913,15.913,0,0,0,5.04,4.445,14.371,14.371,0,0,0,7,1.575,10.521,10.521,0,0,0,5.915-1.47,4.626,4.626,0,0,0,2.2-4.06,5.234,5.234,0,0,0-1.26-3.64,10.4,10.4,0,0,0-3.325-2.38,37.76,37.76,0,0,0-4.55-1.785q-2.485-.805-4.97-1.855a20.839,20.839,0,0,1-4.55-2.625,11.627,11.627,0,0,1-3.325-4.06,13.8,13.8,0,0,1-1.26-6.265,13.12,13.12,0,0,1,2.17-7.63,13.884,13.884,0,0,1,5.95-4.83,20.815,20.815,0,0,1,8.54-1.68,21.307,21.307,0,0,1,9.1,1.89,19.438,19.438,0,0,1,6.65,4.9l-6.3,6.3a15.246,15.246,0,0,0-4.445-3.5,11.5,11.5,0,0,0-5.145-1.12,9.245,9.245,0,0,0-5.18,1.26,4.108,4.108,0,0,0-1.89,3.64,4.45,4.45,0,0,0,1.26,3.29,10.805,10.805,0,0,0,3.325,2.17q2.065.91,4.55,1.75t4.97,1.89a18.708,18.708,0,0,1,4.55,2.73,12.324,12.324,0,0,1,3.325,4.305A14.9,14.9,0,0,1,147.875-14a13.128,13.128,0,0,1-4.83,10.78Q138.215.7,129.815.7Zm31.15-.7V-49.21h9.52V0Zm7,0V-8.4h27.23V0Zm0-21.07v-8.12h24.78v8.12Zm0-19.74v-8.4h26.88v8.4Z" transform="translate(0.7 193.025) rotate(90)" fill="#efb700" opacity="0.1"/>
</svg>
