<svg xmlns="http://www.w3.org/2000/svg" xmlns:xlink="http://www.w3.org/1999/xlink" width="359.127" height="73.024" viewBox="0 0 359.127 73.024">
  <defs>
    <linearGradient id="linear-gradient" x1="0.5" x2="0.5" y2="1" gradientUnits="objectBoundingBox">
      <stop offset="0" stop-color="#1bb7eb"/>
      <stop offset="1" stop-color="#1d588e"/>
    </linearGradient>
    <clipPath id="clip-path">
      <rect id="長方形_75638" data-name="長方形 75638" width="63.385" height="73.024" fill="url(#linear-gradient)"/>
    </clipPath>
  </defs>
  <g id="products_ldh-logo" transform="translate(-658 -1277.487)">
    <path id="パス_50824" data-name="パス 50824" d="M-134.648-2.635a3.756,3.756,0,0,0,.139,1.209.794.794,0,0,0,.542.5,4.87,4.87,0,0,0,1.3.124h1.86a5.738,5.738,0,0,0,3.72-1.224,5.839,5.839,0,0,0,2.015-3.3q.031-.093.186-.077t.155.109q-.279,2.914-.279,4.836a.546.546,0,0,1-.093.356.484.484,0,0,1-.372.109H-139.98q-.062,0-.062-.186t.062-.186a5.461,5.461,0,0,0,1.535-.155.978.978,0,0,0,.651-.6,4.151,4.151,0,0,0,.171-1.379V-16.864a4.006,4.006,0,0,0-.171-1.364,1.029,1.029,0,0,0-.667-.6A5.01,5.01,0,0,0-139.98-19q-.062,0-.062-.186t.062-.186l1.581.031q1.364.062,2.232.062.93,0,2.294-.062l1.55-.031q.093,0,.093.186t-.093.186a4.85,4.85,0,0,0-1.5.17,1.023,1.023,0,0,0-.651.62,4.15,4.15,0,0,0-.171,1.379ZM-111.863.124q-.961,0-2.232-.093-.465-.031-1.178-.062t-1.612-.031l-2.2.031q-.589.031-1.643.031-.062,0-.062-.186t.062-.186a5.461,5.461,0,0,0,1.535-.155,1.025,1.025,0,0,0,.667-.6,3.828,3.828,0,0,0,.186-1.379V-16.864a4.006,4.006,0,0,0-.17-1.364,1.029,1.029,0,0,0-.667-.6A5.009,5.009,0,0,0-120.7-19q-.062,0-.062-.186t.062-.186l1.643.031q1.364.062,2.17.062,1.24,0,2.511-.093,1.55-.062,2.077-.062a12.253,12.253,0,0,1,5.611,1.24,9.378,9.378,0,0,1,3.8,3.379,8.822,8.822,0,0,1,1.349,4.8A10.079,10.079,0,0,1-102.935-4.7a9.568,9.568,0,0,1-3.751,3.565A10.834,10.834,0,0,1-111.863.124Zm-.31-.62a7.085,7.085,0,0,0,3.8-1.023,6.8,6.8,0,0,0,2.589-3.023,11.282,11.282,0,0,0,.93-4.79,12.6,12.6,0,0,0-.883-4.82,8.11,8.11,0,0,0-2.5-3.41,5.93,5.93,0,0,0-3.751-1.255,10.044,10.044,0,0,0-2.015.155,1.723,1.723,0,0,0-1.038.573,2.086,2.086,0,0,0-.326,1.287v13.95a2.24,2.24,0,0,0,.651,1.813A4.2,4.2,0,0,0-112.173-.5Zm37.231.124q.093,0,.093.186T-74.942,0Q-76,0-76.647-.031L-78.91-.062l-2.635.031Q-82.1,0-83.033,0q-.093,0-.093-.186t.093-.186a6.663,6.663,0,0,0,1.705-.155,1.041,1.041,0,0,0,.713-.589,3.81,3.81,0,0,0,.186-1.395V-9.672H-91.062v7.161a3.828,3.828,0,0,0,.186,1.379,1.041,1.041,0,0,0,.729.6,6.86,6.86,0,0,0,1.72.155q.062,0,.062.186T-88.427,0q-1.054,0-1.643-.031l-2.573-.031-2.263.031Q-95.5,0-96.549,0q-.062,0-.062-.186t.062-.186a6.329,6.329,0,0,0,1.643-.155,1.036,1.036,0,0,0,.713-.6,3.828,3.828,0,0,0,.186-1.379V-16.864a3.7,3.7,0,0,0-.186-1.364,1.087,1.087,0,0,0-.713-.6A5.628,5.628,0,0,0-96.518-19q-.062,0-.062-.186t.062-.186l1.643.031q1.426.062,2.232.062,1.085,0,2.573-.062l1.643-.031q.062,0,.062.186t-.062.186a5.62,5.62,0,0,0-1.689.186,1.185,1.185,0,0,0-.744.635,3.558,3.558,0,0,0-.2,1.379v6.324h10.633V-16.8a3.828,3.828,0,0,0-.186-1.379,1.131,1.131,0,0,0-.729-.635A5.62,5.62,0,0,0-83.033-19q-.093,0-.093-.186t.093-.186l1.488.031q1.488.062,2.635.062.837,0,2.263-.062l1.705-.031q.093,0,.093.186t-.093.186a5.606,5.606,0,0,0-1.628.17,1.083,1.083,0,0,0-.7.6,3.7,3.7,0,0,0-.186,1.364V-2.511a3.828,3.828,0,0,0,.186,1.379,1.031,1.031,0,0,0,.7.6A6.14,6.14,0,0,0-74.942-.372Zm23.157-1.612q.093,0,.171.124t-.015.186A8.562,8.562,0,0,1-53.8-.109a5.042,5.042,0,0,1-2.17.481,3.842,3.842,0,0,1-2.248-.636,2.4,2.4,0,0,1-.915-2.124V-9.393a2.044,2.044,0,0,0-.325-1.364,1.739,1.739,0,0,0-1.256-.341q-.031,0-.077-.077a.325.325,0,0,1-.047-.17.325.325,0,0,1,.047-.17q.046-.078.077-.078,2.914-.124,3.658-2.511a.265.265,0,0,1,.263-.124q.2,0,.2.124v2.449q1.457-.031,4.123-.31.062,0,.14.233a1.61,1.61,0,0,1,.077.512,1.53,1.53,0,0,1-.109.558q-.109.279-.233.248a21.763,21.763,0,0,0-4-.5v7.5a2.354,2.354,0,0,0,.6,1.783,2.357,2.357,0,0,0,1.69.573,3.9,3.9,0,0,0,2.449-.9Zm14.756.031q.062,0,.139.124t.015.186A8.023,8.023,0,0,1-39.168-.109a6.353,6.353,0,0,1-2.48.481,6.184,6.184,0,0,1-3.271-.837,5.668,5.668,0,0,1-2.108-2.2,6.155,6.155,0,0,1-.729-2.945,6.452,6.452,0,0,1,.9-3.348,6.551,6.551,0,0,1,2.465-2.4,6.971,6.971,0,0,1,3.487-.884,4.226,4.226,0,0,1,2.883.9A3.361,3.361,0,0,1-37-8.68q0,.9-.372.9l-7.564.031a8.264,8.264,0,0,0-.031.837A6.813,6.813,0,0,0-43.71-2.589a4.288,4.288,0,0,0,3.581,1.6,4.546,4.546,0,0,0,1.457-.2,11.7,11.7,0,0,0,1.581-.728Zm-4.991-9.672a2.32,2.32,0,0,0-1.875.884,5.006,5.006,0,0,0-.977,2.433l4.96-.093Q-39.974-11.625-42.02-11.625Zm12.059,1.271a2.163,2.163,0,0,0,.667,1.612,9.363,9.363,0,0,0,1.938,1.364q1.116.62,1.721,1.023A3.779,3.779,0,0,1-24.583-5.27a2.918,2.918,0,0,1,.449,1.643,3.794,3.794,0,0,1-.527,1.953A3.894,3.894,0,0,1-26.226-.217,5.135,5.135,0,0,1-28.69.341a5.908,5.908,0,0,1-3.131-.868A.536.536,0,0,1-32.007-.9l-.062-2.852q0-.093.171-.109t.2.046a6.047,6.047,0,0,0,1.6,2.542,3.311,3.311,0,0,0,2.278.992,1.709,1.709,0,0,0,1.209-.4,1.572,1.572,0,0,0,.434-1.209,2.567,2.567,0,0,0-.682-1.875,7.924,7.924,0,0,0-1.984-1.379Q-29.9-5.7-30.488-6.092A3.4,3.4,0,0,1-31.5-7.145,3.063,3.063,0,0,1-31.914-8.8a2.962,2.962,0,0,1,1.287-2.635,5.44,5.44,0,0,1,3.115-.868,7.193,7.193,0,0,1,2.48.465q.279.124.279.341,0,.713-.031,1.116L-24.815-8.9q0,.093-.186.093t-.186-.093a2.174,2.174,0,0,0-.5-1.286,3.987,3.987,0,0,0-1.271-1.1,3.2,3.2,0,0,0-1.581-.434Q-29.961-11.718-29.961-10.354Zm19.375,8.37q.093,0,.17.124t-.016.186A8.562,8.562,0,0,1-12.6-.109a5.042,5.042,0,0,1-2.17.481,3.842,3.842,0,0,1-2.248-.636,2.4,2.4,0,0,1-.914-2.124V-9.393a2.044,2.044,0,0,0-.326-1.364,1.739,1.739,0,0,0-1.255-.341q-.031,0-.078-.077a.325.325,0,0,1-.046-.17.325.325,0,0,1,.046-.17q.047-.078.078-.078,2.914-.124,3.658-2.511a.265.265,0,0,1,.264-.124q.2,0,.2.124v2.449q1.457-.031,4.123-.31.062,0,.14.233a1.61,1.61,0,0,1,.077.512,1.53,1.53,0,0,1-.109.558q-.109.279-.232.248a21.763,21.763,0,0,0-4-.5v7.5a2.354,2.354,0,0,0,.6,1.783,2.357,2.357,0,0,0,1.69.573,3.9,3.9,0,0,0,2.449-.9ZM24.382-19.375q.062,0,.062.186T24.382-19a2.287,2.287,0,0,0-1.922.883,4.063,4.063,0,0,0-.682,2.527V.434q0,.093-.155.124a.235.235,0,0,1-.217-.031L6.867-16.368V-3.751A4.133,4.133,0,0,0,7.518-1.24a2.218,2.218,0,0,0,1.891.868q.062,0,.062.186T9.409,0Q8.572,0,8.138-.031L6.495-.062,4.666-.031Q4.17,0,3.24,0q-.093,0-.093-.186T3.24-.372A2.542,2.542,0,0,0,5.3-1.24,3.81,3.81,0,0,0,6.03-3.751V-17.329a6.427,6.427,0,0,0-1.566-1.3A3.026,3.026,0,0,0,3.023-19q-.062,0-.062-.186t.062-.186l1.24.031q.4.031,1.147.031l1.984-.031q.372-.031.9-.031a.505.505,0,0,1,.372.124,3.694,3.694,0,0,1,.372.5l.744.992L20.941-4.619V-15.593a4.206,4.206,0,0,0-.651-2.527A2.172,2.172,0,0,0,18.43-19q-.062,0-.062-.186t.062-.186l1.271.031q.992.062,1.643.062.62,0,1.674-.062Zm24.986,19q.155,0,.155.186T49.368,0q-.589,0-1.891-.062T45.586-.124q-.775,0-1.829.062T42.114,0q-.124,0-.124-.186t.124-.186a3.213,3.213,0,0,0,1.318-.2.688.688,0,0,0,.418-.666,4.5,4.5,0,0,0-.527-1.581L40.967-7.6h-7.5L31.977-4.247a4.273,4.273,0,0,0-.4,1.674A1.9,1.9,0,0,0,32.349-.93a3.663,3.663,0,0,0,2.17.558q.155,0,.155.186T34.519,0q-.558,0-1.612-.062-1.178-.062-2.046-.062-.837,0-1.953.062Q27.916,0,27.265,0q-.155,0-.155-.186t.155-.186a2.868,2.868,0,0,0,1.457-.341,3.583,3.583,0,0,0,1.147-1.225A21.9,21.9,0,0,0,31.2-4.557l6.665-15q.062-.093.279-.093t.248.093l7.6,15.314A14.71,14.71,0,0,0,47.8-1.194,2.1,2.1,0,0,0,49.368-.372Zm-15.562-8h6.789L37.03-15.593ZM64.4.372A13.138,13.138,0,0,1,58.311-.961a9.59,9.59,0,0,1-3.952-3.611,9.679,9.679,0,0,1-1.364-5.069,9.19,9.19,0,0,1,1.55-5.27,10.148,10.148,0,0,1,4.278-3.549,14.439,14.439,0,0,1,6.107-1.256,18.17,18.17,0,0,1,3.022.248,8.639,8.639,0,0,1,2.4.713.7.7,0,0,1,.326.217,1.822,1.822,0,0,1,.077.5l.4,4.092q0,.093-.171.124t-.2-.093A8.67,8.67,0,0,0,68.4-17.5a6.265,6.265,0,0,0-4.464-1.628,7.241,7.241,0,0,0-3.89,1.085,7.458,7.458,0,0,0-2.759,3.115,10.436,10.436,0,0,0-1.007,4.7,11.774,11.774,0,0,0,1.1,5.131,8.763,8.763,0,0,0,3.131,3.642A8.308,8.308,0,0,0,65.178-.124a5.562,5.562,0,0,0,2.077-.31A1.987,1.987,0,0,0,68.34-1.55a6.306,6.306,0,0,0,.341-2.356,9.168,9.168,0,0,0-.186-2.247,1.218,1.218,0,0,0-.821-.852,7.748,7.748,0,0,0-2.216-.217q-.186,0-.186-.248a.325.325,0,0,1,.047-.171.131.131,0,0,1,.108-.077q2.573.155,4.123.155t3.224-.093a.131.131,0,0,1,.109.077.278.278,0,0,1,.046.139q0,.217-.155.217a1.176,1.176,0,0,0-.868.2,1.554,1.554,0,0,0-.326.946Q71.5-5.363,71.5-3.6a12.454,12.454,0,0,0,.108,1.984,5.771,5.771,0,0,1,.108.744.359.359,0,0,1-.062.248.709.709,0,0,1-.279.124A32.539,32.539,0,0,1,64.4.372ZM98.472-.372q.155,0,.155.186T98.472,0q-.589,0-1.891-.062T94.69-.124q-.775,0-1.829.062T91.218,0q-.124,0-.124-.186t.124-.186a3.213,3.213,0,0,0,1.317-.2.688.688,0,0,0,.418-.666,4.5,4.5,0,0,0-.527-1.581L90.071-7.6h-7.5L81.081-4.247a4.273,4.273,0,0,0-.4,1.674A1.9,1.9,0,0,0,81.453-.93a3.663,3.663,0,0,0,2.17.558q.155,0,.155.186T83.623,0q-.558,0-1.612-.062-1.178-.062-2.046-.062-.837,0-1.953.062Q77.02,0,76.369,0q-.155,0-.155-.186t.155-.186a2.868,2.868,0,0,0,1.457-.341,3.583,3.583,0,0,0,1.147-1.225,21.9,21.9,0,0,0,1.333-2.62l6.665-15q.062-.093.279-.093t.248.093l7.6,15.314a14.711,14.711,0,0,0,1.813,3.053A2.1,2.1,0,0,0,98.472-.372Zm-15.562-8H89.7l-3.565-7.223Zm22.413-10.354a4.343,4.343,0,0,0-3.116,1.162,7.51,7.51,0,0,0-1.875,3.519q0,.062-.171.062t-.171-.093q.124-1.209.279-3.115t.155-2.868q0-.155.171-.155t.171.155q0,.682,1.736.682,2.666.093,6.231.093,1.829,0,3.875-.062l2.108-.031a6.86,6.86,0,0,0,1.721-.155.95.95,0,0,0,.7-.62.166.166,0,0,1,.186-.124q.155,0,.155.124-.093.961-.186,2.914t-.093,3.162q0,.093-.171.093t-.2-.093a5.874,5.874,0,0,0-1.457-3.519,4.221,4.221,0,0,0-3.1-1.131,3.96,3.96,0,0,0-1.286.155.883.883,0,0,0-.558.542,3.911,3.911,0,0,0-.14,1.225V-2.511a3.81,3.81,0,0,0,.186,1.395,1.054,1.054,0,0,0,.744.589,7.235,7.235,0,0,0,1.767.155q.093,0,.093.186T112.98,0q-1.085,0-1.705-.031l-2.542-.031-2.418.031q-.651.031-1.8.031-.062,0-.062-.186t.062-.186A7.44,7.44,0,0,0,106.3-.527a1.1,1.1,0,0,0,.775-.6,3.558,3.558,0,0,0,.2-1.379V-16.864a3.284,3.284,0,0,0-.155-1.178.939.939,0,0,0-.558-.527A3.686,3.686,0,0,0,105.323-18.724ZM140.973-.372q.155,0,.155.186T140.973,0q-.589,0-1.891-.062t-1.891-.062q-.775,0-1.829.062T133.719,0q-.124,0-.124-.186t.124-.186a3.213,3.213,0,0,0,1.318-.2.688.688,0,0,0,.418-.666,4.5,4.5,0,0,0-.527-1.581L132.572-7.6h-7.5l-1.488,3.348a4.273,4.273,0,0,0-.4,1.674,1.9,1.9,0,0,0,.775,1.643,3.663,3.663,0,0,0,2.17.558q.155,0,.155.186T126.124,0q-.558,0-1.612-.062-1.178-.062-2.046-.062-.837,0-1.953.062Q119.52,0,118.87,0q-.155,0-.155-.186t.155-.186a2.868,2.868,0,0,0,1.457-.341,3.583,3.583,0,0,0,1.147-1.225,21.9,21.9,0,0,0,1.333-2.62l6.665-15q.062-.093.279-.093t.248.093l7.6,15.314a14.71,14.71,0,0,0,1.813,3.053A2.1,2.1,0,0,0,140.973-.372Zm-15.562-8H132.2l-3.565-7.223Z" transform="translate(876 1327)"/>
    <g id="グループ_408725" data-name="グループ 408725" transform="translate(658 1277.487)" opacity="0.996">
      <g id="グループ_211" data-name="グループ 211" clip-path="url(#clip-path)">
        <path id="パス_43952" data-name="パス 43952" d="M48.877,60.654a31.787,31.787,0,0,1-8.864,7.462A32.968,32.968,0,0,1,25.138,72.97a22.744,22.744,0,0,1-22.6-14.235c-3.547-8.822-3.115-17.7-.326-26.6a.747.747,0,0,1,.639-.669A33.1,33.1,0,0,0,1.843,43.63c.817,11.31,8.488,21.523,19.737,24.314a3.97,3.97,0,0,0,4.249-1.136c7.051-7.036,14.19-13.983,21.308-20.952,4.327-4.236,8.641-8.487,13.029-12.659a3.923,3.923,0,0,0,1.362-3.771c-.28-1.615-.585-3.227-.857-4.843-.251-1.5-.793-1.288-1.689-.408q-7.691,7.558-15.439,15.057c-.365.355-.725.716-1.107,1.053a.717.717,0,0,1-1.062.008.735.735,0,0,1-.053-1.18c.831-.85,1.666-1.7,2.516-2.527,4.858-4.746,9.7-9.5,14.6-14.215a1.974,1.974,0,0,0,.51-2.667c-.658-1.322-1.429-2.567-2.164-3.841-.649-1.126-1.179-1.218-2.154-.247-4.051,4.032-8.179,7.987-12.278,11.971a9.623,9.623,0,0,1-1.1,1.055c-.574.4-1.014,1.6-1.908.733-.916-.885.209-1.4.7-1.883,2.2-2.2,4.473-4.328,6.7-6.5s4.389-4.421,6.676-6.531c1.132-1.044,1.035-1.769-.033-2.749-7.693-7.054-16.57-8.823-26.483-5.993A32.483,32.483,0,0,0,14.4,12.7c-.323.281-.549.724-1.244.747a13.6,13.6,0,0,1,2.874-3.111C21.115,5.667,26.858,2.1,33.681.654c13.263-2.82,24.216,3.628,28.213,16.6,2.509,8.143,1.683,16.2-1.211,24.133.187-1.093.4-2.181.551-3.279a7.53,7.53,0,0,0,.112-3.6c-1.255,1.121-2.449,2.107-3.553,3.185q-11.968,11.684-23.91,23.4c-2.1,2.056-4.256,4.062-6.362,6.116-.335.326-.95.821-.734,1.179.259.429.908.4,1.41.381a31.379,31.379,0,0,0,16.767-5.3c1.329-.9,2.61-1.87,3.913-2.807M32.033,7.3c-.222.043-.448.067-.667.12a12.512,12.512,0,0,0-9.2,12.192c.081,2.191.381,2.45,2.516,2.168A12.124,12.124,0,0,0,35.163,9.881c.011-2.914-.273-3.148-3.13-2.585M9.844,16.047c-1.384-.185-1.908.25-2.09,1.644-.743,5.688,3.723,11.695,9.7,12.905,2.9.587,3.193.35,3.154-2.529A12.137,12.137,0,0,0,9.844,16.047M32.8,20.981c-5.91.548-11.123,6.781-10.6,12.675.162,1.836.647,2.212,2.507,1.943A12.154,12.154,0,0,0,35.149,23.688c.018-2.639-.213-2.906-2.352-2.707m1.006,14.8A12.191,12.191,0,0,0,22.259,48.952c.073,1.138.584,1.706,1.871,1.574A12.364,12.364,0,0,0,35.137,38.344c-.272-.853.628-2.648-1.334-2.56M9.753,30.366c-1.335-.178-1.8.247-1.98,1.541-.806,5.641,3.557,11.6,9.575,12.966,2.906.659,3.3.345,3.241-2.58A12.172,12.172,0,0,0,9.753,30.366M9.68,45.61c-1.247-.17-1.713.174-1.881,1.426-.863,6.44,4.868,13.156,11.389,13.3.865.019,1.275-.325,1.307-1.155.02-.508,0-1.017,0-1.525.035-6.3-4.4-11.174-10.819-12.047" transform="translate(0 0)" fill="url(#linear-gradient)"/>
      </g>
    </g>
  </g>
</svg>
