<svg id="グループ_408665" data-name="グループ 408665" xmlns="http://www.w3.org/2000/svg" xmlns:xlink="http://www.w3.org/1999/xlink" width="141.076" height="370.014" viewBox="0 0 141.076 370.014">
  <defs>
    <clipPath id="clip-path">
      <rect id="長方形_75696" data-name="長方形 75696" width="141.076" height="370.014" fill="none"/>
    </clipPath>
    <linearGradient id="linear-gradient" x1="0.904" y1="0.025" x2="0.155" y2="1" gradientUnits="objectBoundingBox">
      <stop offset="0" stop-color="#1bb7eb"/>
      <stop offset="1" stop-color="#1d588e"/>
    </linearGradient>
  </defs>
  <g id="グループ_408664" data-name="グループ 408664" clip-path="url(#clip-path)">
    <path id="パス_44868" data-name="パス 44868" d="M49.556,43.276q-.949-.125-.821-1.012a49.4,49.4,0,0,0,3.476-4.423q1.832-2.589,3.665-5.719t3.381-6.447a47.673,47.673,0,0,0,2.5-6.478,5.244,5.244,0,0,0,.284-1.391q.033-.63.032-1.138a1.794,1.794,0,0,1,.19-1.073.563.563,0,0,1,.631,0q.63.253,1.929.947t2.59,1.391q1.3.7,1.929,1.073c.294.17.379.464.252.886a.631.631,0,0,1-.821.442h-.126a3.13,3.13,0,0,0-1.233-.128q-.6.064-.98.949a50.8,50.8,0,0,1-3.476,6.384q-2.084,3.286-4.456,6.32t-4.677,5.5a32.786,32.786,0,0,1-4.265,3.918M72.876,55.6a11.7,11.7,0,0,0-1.58-3.129A5.523,5.523,0,0,0,68.989,50.7a15.247,15.247,0,0,0-3.886-.917.864.864,0,0,1,.253-1.328q.63.064,2.022.158t3.034.158q1.64.064,2.906.063a1.845,1.845,0,0,0,1.422-.41,1.987,1.987,0,0,0,.349-1.3V6.873a24.413,24.413,0,0,0-.223-3.823,6.317,6.317,0,0,0-.537-1.866q-.253-.378,0-.631a.622.622,0,0,1,.633-.189c.464.083,1.116.219,1.959.41s1.7.369,2.559.537,1.527.316,1.991.442a.786.786,0,0,1,.507.821.628.628,0,0,1-.7.633,5.968,5.968,0,0,0-1.357.284q-.666.222-.665,1.168V26.971q0,2.656.1,5.91t.221,6.287q.128,3.033.221,5.246t.1,2.906a12.163,12.163,0,0,1-.442,3.287,5.807,5.807,0,0,1-1.929,2.843,12.467,12.467,0,0,1-4.644,2.15m30.715-18.139q-1.582.821-2.464-1.012a40.059,40.059,0,0,0-4.235-7.015,60.787,60.787,0,0,0-5.468-6.382,36.2,36.2,0,0,0-5.53-4.677.869.869,0,0,1,.7-1.138,37.8,37.8,0,0,1,4.741,2.338q2.525,1.454,4.961,3.16a46.244,46.244,0,0,1,4.393,3.476,20.27,20.27,0,0,1,3.1,3.413A7.73,7.73,0,0,1,105.3,33.29a5.154,5.154,0,0,1-.41,2.718,3.077,3.077,0,0,1-1.3,1.454" transform="translate(34.134 0.246)"/>
    <path id="パス_44869" data-name="パス 44869" d="M49.022,98.191a.867.867,0,0,1-.347-.631.754.754,0,0,1,.221-.633q4.232-.885,9.037-2.15A58.855,58.855,0,0,0,67.6,91.271a42.129,42.129,0,0,0,9.229-5.847A39.161,39.161,0,0,1,72.91,81a33.157,33.157,0,0,1-3.286-5.309,61.706,61.706,0,0,1-8.406,9.069,71.269,71.269,0,0,1-9.859,7.362.986.986,0,0,1-.631-.378.832.832,0,0,1-.19-.7,71.259,71.259,0,0,0,7.585-6.794,74.722,74.722,0,0,0,6.92-8.185,39.882,39.882,0,0,0,4.833-8.532,3.239,3.239,0,0,0,.316-.884c.041-.253.083-.463.126-.633h-17.7a21.265,21.265,0,0,0-3.349.316l-.505-2.781a21.879,21.879,0,0,0,3.854.505H75.249V58.185H59.576a21.455,21.455,0,0,0-3.413.316l-.507-2.718a22.065,22.065,0,0,0,3.859.507H75.249V50.349H55.026a21.067,21.067,0,0,0-3.35.316l-.568-2.718a23.236,23.236,0,0,0,3.918.505H75.249v-3.6a6.185,6.185,0,0,0-.442-2.971.684.684,0,0,1,0-.694.865.865,0,0,1,.631-.128q.7.128,1.866.379t2.338.537q1.168.283,1.866.474c.418.043.59.294.505.758a.627.627,0,0,1-.7.631,6.556,6.556,0,0,0-1.326.286q-.7.222-.7,1.168v3.16H95.158a.94.94,0,0,0,.694-.252q.316-.38,1.2-1.391t1.2-1.391a.766.766,0,0,1,1.138,0,16.437,16.437,0,0,1,1.9,1.517q1.2,1.076,1.77,1.707a1.236,1.236,0,0,1,.41,1.168.775.775,0,0,1-.854.537H79.293v5.942H90.417a.963.963,0,0,0,.7-.316c.211-.211.609-.653,1.2-1.328s.99-1.138,1.2-1.391a.8.8,0,0,1,1.138-.063q.63.508,1.833,1.58a24.22,24.22,0,0,1,1.769,1.707,1.222,1.222,0,0,1,.442,1.138.726.726,0,0,1-.82.568H79.293v5.877H96.862A1.988,1.988,0,0,0,97.4,64a.787.787,0,0,0,.41-.316c.253-.294.641-.779,1.17-1.452s.893-1.138,1.105-1.391q.441-.63,1.2-.126a10.934,10.934,0,0,1,1.326,1.042q.821.727,1.675,1.454t1.233,1.105a1.163,1.163,0,0,1,.379,1.105.66.66,0,0,1-.7.6H73.038q.883.508,1.8,1.075t1.549.949a.6.6,0,0,1,.189.884c-.085.379-.357.527-.821.442a2.429,2.429,0,0,0-1.422-.158,1.89,1.89,0,0,0-.915.917c-.17.3-.361.6-.568.917s-.423.643-.634.98H85.551a1.2,1.2,0,0,0,.884-.316l1.959-1.959a1.384,1.384,0,0,1,.6-.347q.219-.033.663.347a12.856,12.856,0,0,1,1.264,1.107q.821.791,1.675,1.578A16.736,16.736,0,0,1,93.83,73.67a.742.742,0,0,1,.189,1.012,1.268,1.268,0,0,1-1.2.442,3.7,3.7,0,0,0-1.77.221,3.218,3.218,0,0,0-1.138,1.168,43.161,43.161,0,0,1-3.792,5.119,50.663,50.663,0,0,1-4.172,4.3,34.546,34.546,0,0,0,7.932,3.444,53.835,53.835,0,0,0,8.564,1.77q4.36.536,8.532.789a15.3,15.3,0,0,0-3.445,2.4,7.593,7.593,0,0,0-1.991,2.718,86.929,86.929,0,0,1-11.217-3.286,39.747,39.747,0,0,1-10.712-5.94A41.2,41.2,0,0,1,69.56,93.64a58.064,58.064,0,0,1-10.491,3.1q-5.245,1.01-10.047,1.454M78.789,83.719A46.087,46.087,0,0,0,82.8,79.263a41.563,41.563,0,0,0,3.571-5.34H70.951l-.128.126a31.232,31.232,0,0,0,3.636,5.468,28.9,28.9,0,0,0,4.33,4.2" transform="translate(34.1 28.756)"/>
    <path id="パス_44870" data-name="パス 44870" d="M72.753,132.991a43.087,43.087,0,0,1-8.911-.821,11.662,11.662,0,0,1-5.973-2.939,8.165,8.165,0,0,1-2.117-6.036,9.61,9.61,0,0,1,1.9-5.814,19.492,19.492,0,0,1,4.962-4.646,44.215,44.215,0,0,1,6.415-3.57,6.5,6.5,0,0,1-1.8-3.066,19.649,19.649,0,0,1-.6-5.466q0-1.2.094-3.287t.189-4.3q.1-2.212.158-3.73A7.461,7.461,0,0,0,67,87.55a1.5,1.5,0,0,0-.758-1.01,1.739,1.739,0,0,0-.789-.223c-.316-.02-.6-.031-.854-.031h-.189a1.22,1.22,0,0,1-.286-.665.723.723,0,0,1,.223-.6,9.024,9.024,0,0,1,2.59-.284,15.632,15.632,0,0,1,2.464.221,4.643,4.643,0,0,1,3.255,1.77,2.089,2.089,0,0,1-.094,2.59,10.152,10.152,0,0,0-1.8,4.583,41.688,41.688,0,0,0-.286,11.25,5.8,5.8,0,0,0,1.075,2.939q2.464-1.01,4.74-1.77t3.918-1.326a7.114,7.114,0,0,1,2.338-.505,3.219,3.219,0,0,1,2.087,1.073q1.388,1.2,1.042,2.275t-2.18,1.391q-2.719.441-5.973,1.231a64.4,64.4,0,0,0-6.51,1.959,36.333,36.333,0,0,0-5.973,2.75,16.666,16.666,0,0,0-4.36,3.508A6.491,6.491,0,0,0,59.039,123a4.323,4.323,0,0,0,1.643,3.7,10.1,10.1,0,0,0,4.74,1.645,57.235,57.235,0,0,0,7.394.41,44.345,44.345,0,0,0,4.709-.284q2.62-.286,5.024-.7t3.792-.791a2.037,2.037,0,0,1,1.643.19q2.908,1.582,2.592,2.939t-2.527,1.864a24.529,24.529,0,0,1-3.036.444q-1.959.189-4.233.315t-4.425.19q-2.148.064-3.6.063" transform="translate(39.062 59.368)"/>
    <path id="パス_44871" data-name="パス 44871" d="M49.2,180.234a.856.856,0,0,1-.537-.505.732.732,0,0,1,.032-.7,49.626,49.626,0,0,0,5.087-2.843,69.357,69.357,0,0,0,5.689-4.013,61.463,61.463,0,0,0,5.4-4.74,30.492,30.492,0,0,0,4.172-5.025,3.826,3.826,0,0,0,.7-1.517c.041-.378.073-.673.094-.884a.649.649,0,0,1,.412-.505.749.749,0,0,1,.568.126q.571.38,1.675,1.3t2.245,1.8q1.135.885,1.643,1.328A.684.684,0,0,1,76.5,165a.661.661,0,0,1-.884.316,2.51,2.51,0,0,0-1.359-.253,2.587,2.587,0,0,0-1.485.758,58.938,58.938,0,0,1-5.246,4.362q-2.972,2.212-6.224,4.2T54.921,177.9a43.093,43.093,0,0,1-5.719,2.338m.126-22.246-.568-2.718a23.285,23.285,0,0,0,3.918.505h14.6v-15.1H55.9a21.3,21.3,0,0,0-3.349.315l-.57-2.718a22.144,22.144,0,0,0,3.918.505H67.276v-8.91a19.343,19.343,0,0,0-.189-3.034,5.15,5.15,0,0,0-.568-1.77.537.537,0,0,1,0-.7.723.723,0,0,1,.631-.126q.7.128,1.991.412l2.592.568q1.293.286,1.99.474c.42.126.59.379.505.758a.624.624,0,0,1-.694.631,6.521,6.521,0,0,0-1.328.286q-.7.222-.7,1.168v10.238H83.267v-8.91q0-3.666-.7-4.8a.461.461,0,0,1,0-.7c.083-.167.274-.209.568-.126q.694.128,1.991.412t2.622.568q1.326.286,2.022.474a.738.738,0,0,1,.507.758.625.625,0,0,1-.7.631,5.985,5.985,0,0,0-1.359.286c-.444.148-.663.537-.663,1.168v10.238h6.571a1.1,1.1,0,0,0,.886-.378q.378-.508,1.168-1.517c.527-.673.895-1.138,1.107-1.391a.752.752,0,0,1,1.2-.063,12.905,12.905,0,0,1,1.359,1.042q.852.727,1.673,1.454t1.2,1.105a1,1,0,0,1,.442,1.044.661.661,0,0,1-.7.6H87.565v15.1h9.289a.941.941,0,0,0,.7-.252l2.845-2.908a.737.737,0,0,1,1.136-.063q.885.633,2.182,1.769a24.545,24.545,0,0,1,1.864,1.77,1.02,1.02,0,0,1,.347,1.042.651.651,0,0,1-.663.537H52.678a21.061,21.061,0,0,0-3.35.316m22.183-2.213H83.267V140.671H71.511Zm29.452,23.132q-1.2.505-2.655-1.58a42.374,42.374,0,0,0-4.709-5.752,58.81,58.81,0,0,0-5.782-5.246,34.742,34.742,0,0,0-5.94-3.855,1.04,1.04,0,0,1,.031-.757.681.681,0,0,1,.537-.444q2.467.76,5.372,1.961a58.6,58.6,0,0,1,5.689,2.716,36.059,36.059,0,0,1,4.993,3.255,16.2,16.2,0,0,1,3.413,3.508,4.419,4.419,0,0,1,.821,2.527,4.976,4.976,0,0,1-.507,2.308,2.97,2.97,0,0,1-1.264,1.359" transform="translate(34.046 87.017)"/>
    <path id="パス_44872" data-name="パス 44872" d="M61.128,212.408a2.577,2.577,0,0,1-1.61.442,2.978,2.978,0,0,1-1.866-.633,12.37,12.37,0,0,1-3.728-5.056q-1.518-3.413-1.517-9.542a49.484,49.484,0,0,1,.505-7.459q.505-3.286,1.2-6t1.2-5.151a23.911,23.911,0,0,0,.507-4.9,5.823,5.823,0,0,0-.57-2.527,11.549,11.549,0,0,0-1.138-1.961.986.986,0,0,1,.284-.726.733.733,0,0,1,.665-.221,12.319,12.319,0,0,1,3.476,3,6.756,6.756,0,0,1,1.643,4.393,11.245,11.245,0,0,1-.663,3.729q-.663,1.9-1.58,4.265a35.265,35.265,0,0,0-1.58,5.593,38.3,38.3,0,0,0-.665,7.648,16.647,16.647,0,0,0,.349,3.633,9.448,9.448,0,0,0,.917,2.561c.209.378.432.548.663.505s.389-.253.474-.633q.63-1.9,1.485-4.36t1.643-4.677q.791-2.212,1.233-3.35c.631-.293,1.031-.126,1.2.507q-.316,1.265-.949,3.476t-1.2,4.928a47.777,47.777,0,0,0-.821,5.563,5.125,5.125,0,0,0,.128,1.769,10.9,10.9,0,0,0,.947,1.833,2.267,2.267,0,0,1,.316,1.864,2.547,2.547,0,0,1-.949,1.486m23.828-2.656a23.474,23.474,0,0,1-8.153-1.136,8.968,8.968,0,0,1-4.425-3.318,14.7,14.7,0,0,1-2.085-5.277,1.061,1.061,0,0,1,.633-.474.622.622,0,0,1,.631.158,8.8,8.8,0,0,0,2.718,3.539,9.563,9.563,0,0,0,4.172,1.612,39.958,39.958,0,0,0,6.257.41,42.227,42.227,0,0,0,5.34-.316,44.265,44.265,0,0,0,4.646-.821,2.527,2.527,0,0,1,.917-.063,2.053,2.053,0,0,1,.6.253.176.176,0,0,0,.126.063,3.363,3.363,0,0,1,2.117,2.529q.158,1.515-1.8,1.832a60.062,60.062,0,0,1-11.692,1.01M82.3,178.784a16.306,16.306,0,0,1-6.7-.949,9.542,9.542,0,0,1-4.235-3.411.918.918,0,0,1,1.01-.884,6.773,6.773,0,0,0,3.6,1.294,25.164,25.164,0,0,0,5.214.032q2.811-.253,5.308-.726a23.649,23.649,0,0,0,3.823-.981,3.2,3.2,0,0,1,1.833-.094,3.8,3.8,0,0,1,1.9,1.294q1.451,1.457,1.042,2.213t-2.5,1.2q-1.39.255-4.265.57t-6.036.442" transform="translate(36.718 118.17)"/>
    <path id="パス_44873" data-name="パス 44873" d="M86.82,221.527a2.623,2.623,0,0,1-1.517.284,1.9,1.9,0,0,1-1.326-.98,46.492,46.492,0,0,0-5.784-7.206,42.134,42.134,0,0,0-6.92-5.813q-.441-.885.442-1.2a40.1,40.1,0,0,1,5.94,1.012,28.923,28.923,0,0,1,5.814,2.085,12.366,12.366,0,0,1,4.362,3.413,5.972,5.972,0,0,1,1.389,3.318,6.127,6.127,0,0,1-.537,3.129,3.944,3.944,0,0,1-1.864,1.959" transform="translate(49.833 144.759)"/>
    <g id="グループ_408673" data-name="グループ 408673">
      <path id="合体_2" data-name="合体 2" d="M23234.891,9176.745a67.636,67.636,0,0,0,13.621-6.571,35.413,35.413,0,0,0,9.516-8.973,64.45,64.45,0,0,1-2.623-10.748,118.819,118.819,0,0,1-1.361-14.977h-14.223a22.344,22.344,0,0,0-3.41.315l-.5-2.716a22.029,22.029,0,0,0,3.855.5h14.154c-.041-.964-.064-1.945-.064-2.937s-.018-2.01-.064-3.062a23.085,23.085,0,0,0-.281-4.4,5.674,5.674,0,0,0-.473-1.542q-.255-.447,0-.7c.082-.123.293-.187.631-.187.467.082,1.074.21,1.834.38s1.525.339,2.307.508,1.4.31,1.863.438a.678.678,0,0,1,.5.759.761.761,0,0,1-.7.7,2.739,2.739,0,0,0-1.355.351,1.4,1.4,0,0,0-.479,1.1q-.185,4.547-.187,8.592h8.721a.812.812,0,0,0,.7-.251c.211-.251.613-.713,1.2-1.391s.986-1.139,1.2-1.39a.773.773,0,0,1,1.139,0,16.165,16.165,0,0,1,1.9,1.519,23.814,23.814,0,0,1,1.77,1.706,1.231,1.231,0,0,1,.41,1.168.775.775,0,0,1-.854.537h-16.18a99.716,99.716,0,0,0,.918,12.512,57.184,57.184,0,0,0,2.055,9.352,48.8,48.8,0,0,0,2.652-5.747,48.216,48.216,0,0,0,2.021-6.7,8.443,8.443,0,0,0,.227-1.39,4.684,4.684,0,0,0-.035-.946,1.539,1.539,0,0,1,.188-.952.691.691,0,0,1,.7,0c.426.175.992.432,1.705.794s1.443.725,2.186,1.1,1.338.694,1.8.946a.718.718,0,0,1,.314.888.654.654,0,0,1-.881.443,2.279,2.279,0,0,0-1.52,0,1.9,1.9,0,0,0-.822,1.134,64.248,64.248,0,0,1-3,7.839,44.8,44.8,0,0,1-3.889,6.764,27.137,27.137,0,0,0,2.686,4.486,17.366,17.366,0,0,0,3,3.16,1.63,1.63,0,0,0,1.133.508c.3-.047.59-.321.887-.823a16.223,16.223,0,0,0,.854-1.706q.542-1.2,1.074-2.622c.357-.952.672-1.812.947-2.594s.455-1.3.537-1.548a.962.962,0,0,1,.76-.064.783.783,0,0,1,.508.444c-.041.292-.17.905-.381,1.834s-.432,1.956-.664,3.1-.434,2.19-.6,3.16a13.961,13.961,0,0,0-.25,2.021,4.749,4.749,0,0,0,.064.917,1.774,1.774,0,0,0,.443.725,3.067,3.067,0,0,1,.818,1.647,2.076,2.076,0,0,1-.381,1.577c-.461.549-1.412.724-2.838.537a8.641,8.641,0,0,1-4.551-2.494,32.655,32.655,0,0,1-3.639-4.013,27.191,27.191,0,0,1-3-5.023,38.017,38.017,0,0,1-10.018,7.9,58.712,58.712,0,0,1-14.184,5.374A.844.844,0,0,1,23234.891,9176.745Zm-1.449-4.106q-.384-.693-.98-1.771c-.4-.718-.8-1.431-1.2-2.149s-.725-1.262-.977-1.642a.608.608,0,0,1,.064-.694c.164-.17.631-.234,1.391-.187.252,0,.531.006.848.029a6.4,6.4,0,0,0,1.045-.029q1.893-.132,4.551-.537c1.77-.274,3.592-.584,5.467-.917s3.615-.666,5.217-.981,2.861-.6,3.791-.853a.593.593,0,0,1,.443.438,1.2,1.2,0,0,1,0,.76q-1.271.57-3.539,1.425t-4.932,1.8c-1.77.631-3.457,1.215-5.059,1.74s-2.908.958-3.918,1.3a2.034,2.034,0,0,0-.912.531c-.152.193-.158.537-.035,1.046.082.461-.041.759-.379.882a1.854,1.854,0,0,1-.5.064A.4.4,0,0,1,23233.441,9172.639Zm-13.213-2.214c-.209-.333-.543-.859-1.01-1.577s-.912-1.455-1.355-2.214a18.047,18.047,0,0,0-1.045-1.642.672.672,0,0,1,0-.7c.17-.21.5-.286,1.01-.222a7.5,7.5,0,0,0,2.15-.158c.713-.128,1.535-.3,2.465-.537s1.916-.5,2.973-.788v-22.062h-4.428a21.77,21.77,0,0,0-3.41.321l-.5-2.722a21.432,21.432,0,0,0,3.855.508h4.486v-12.7a6.1,6.1,0,0,0-.508-2.968.424.424,0,0,1,.064-.631.434.434,0,0,1,.566-.192c.467.087,1.063.21,1.8.379s1.473.345,2.207.538,1.338.345,1.8.473c.426.129.59.38.508.76a.558.558,0,0,1-.631.631,5.991,5.991,0,0,0-1.361.286c-.443.146-.66.537-.66,1.168v12.261h2.021a.974.974,0,0,0,.7-.315c.25-.251.59-.613,1.01-1.074s.736-.8.947-1.011c.215-.257.4-.38.572-.38a1.1,1.1,0,0,1,.631.315,13.362,13.362,0,0,1,1.518,1.3c.59.566,1.07,1.04,1.455,1.419a1.025,1.025,0,0,1,.408,1.075.693.693,0,0,1-.725.566h-8.533v20.923c1.6-.508,3.113-1.01,4.551-1.519s2.611-.97,3.539-1.39c.041-1.011.07-2.167.094-3.476s.041-2.635.064-3.979.029-2.552.029-3.6q0-2.4-.094-3.575a6.519,6.519,0,0,0-.35-1.8.592.592,0,0,1,.063-.7.706.706,0,0,1,.76-.064c.334.17.93.485,1.77.952s1.537.842,2.086,1.134h4.551a1.032,1.032,0,0,0,.76-.251c.168-.17.432-.421.787-.76a7.8,7.8,0,0,0,.789-.823.811.811,0,0,1,1.2-.059c.461.339,1,.765,1.613,1.3s1.08.958,1.418,1.291c.51.508.463.952-.127,1.325q-.316.193-.6.351c-.191.105-.367.2-.537.286a1.967,1.967,0,0,0-.379.345,1.531,1.531,0,0,0-.129.795c0,.794.012,1.787.035,2.967s.053,2.36.094,3.54.076,2.2.094,3.066.035,1.355.035,1.483c0,.3-.3.607-.889.946a3.864,3.864,0,0,1-1.957.509c-.8,0-1.2-.315-1.2-.952v-1.513h-6v3.224c0,.292-.3.6-.918.911a4.262,4.262,0,0,1-1.986.479c-.758,0-1.139-.3-1.139-.888v-.882q-1.392.823-3.352,1.863t-4.137,2.179q-2.183,1.138-4.176,2.12c-1.326.654-2.494,1.186-3.506,1.612-.717.251-.922.817-.631,1.705a.7.7,0,0,1-.256.883,1.382,1.382,0,0,1-.5.157.439.439,0,0,1-.061,0A.483.483,0,0,1,23220.229,9170.425Zm21.047-15.041h6V9145.4h-6Zm24.176-23.254a1.5,1.5,0,0,1-.916-.952,17.458,17.458,0,0,0-1.77-3.061,13.376,13.376,0,0,0-2.781-2.88.906.906,0,0,1,.7-1.2,24.68,24.68,0,0,1,3.949,1.513,5.613,5.613,0,0,1,2.621,2.465,3.128,3.128,0,0,1,.41,2.342,2.45,2.45,0,0,1-1.168,1.577,1.4,1.4,0,0,1-.744.228A1.352,1.352,0,0,1,23265.451,9132.13Zm-15.9-26.835c-1.725-.058-3.137-.157-4.23-.28q-4.107-.447-4.111-3.6v-22.5l-4.93,1.962a20.714,20.714,0,0,0-3.031,1.513l-1.455-2.336a27.826,27.826,0,0,0,3.791-.946l5.625-2.278V9062.73a11.573,11.573,0,0,0-.123-1.863,3.463,3.463,0,0,0-.314-1.04.451.451,0,0,1,0-.694c.08-.129.291-.193.631-.193.8.129,1.758.315,2.873.572s2.074.485,2.873.7c.422.041.6.292.51.76a.628.628,0,0,1-.7.631,6.111,6.111,0,0,0-1.326.286c-.467.146-.7.531-.7,1.162v12.331l6.443-2.594v-17.95a14.891,14.891,0,0,0-.094-2.085,2,2,0,0,0-.346-.888.681.681,0,0,1,0-.7.582.582,0,0,1,.631-.123c.76.123,1.713.3,2.875.538s2.137.449,2.938.66a.737.737,0,0,1,.508.759.761.761,0,0,1-.7.7,7.611,7.611,0,0,0-1.359.257c-.445.123-.666.5-.666,1.134v16.244l8.346-3.348a2.257,2.257,0,0,0,.7-.443c.293-.38.59-.783.883-1.2a13.791,13.791,0,0,1,.887-1.14.8.8,0,0,1,1.2-.187c.252.169.672.5,1.268.981s1.176.958,1.766,1.419,1.016.8,1.268,1.011c.5.468.443.888-.193,1.268-.334.163-.7.368-1.1.6s-.748.433-1.041.6a2.388,2.388,0,0,0-.631.474,1.478,1.478,0,0,0-.191.917v11.5a18.138,18.138,0,0,1-.76,5.911,6.008,6.008,0,0,1-2.307,3.131,10.82,10.82,0,0,1-3.949,1.455,6.33,6.33,0,0,0-1.584-3.131,7.237,7.237,0,0,0-3.281-1.612.938.938,0,0,1-.064-.76.753.753,0,0,1,.443-.5c.59.081,1.35.2,2.271.345a16.815,16.815,0,0,0,2.594.222,2.228,2.228,0,0,0,2.209-1.139,10.517,10.517,0,0,0,.572-4.235v-13.773c-.17.041-1.139.421-2.91,1.133s-3.895,1.56-6.383,2.529v7.968q0,2.146.064,4.737t.1,5.023c.018,1.624.047,3,.094,4.142s.059,1.811.059,2.021c0,.339-.326.678-.975,1.011a4.407,4.407,0,0,1-2.057.508q-1.324,0-1.326-1.139c0-.17.012-.829.029-1.992s.053-2.582.1-4.264.07-3.435.094-5.245.029-3.435.029-4.866v-6.385l-6.443,2.529v21.992q0,1.831,2.4,2.086c.842.122,2.115.222,3.82.286s3.551.081,5.531.063,3.844-.1,5.6-.228a21.7,21.7,0,0,0,4.014-.566,2.892,2.892,0,0,0,1.355-.76,3.194,3.194,0,0,0,.725-1.262c.174-.461.385-1.145.637-2.056s.5-1.863.758-2.874.475-1.939.66-2.78.328-1.413.416-1.706q.814-.568,1.262.188c0,.251-.023.835-.064,1.74s-.082,1.893-.123,2.974-.076,2.05-.1,2.938-.029,1.432-.029,1.642a1.03,1.03,0,0,0,.824,1.14,6.506,6.506,0,0,1,1.482.6,1.142,1.142,0,0,1,.6,1.045,1.951,1.951,0,0,1-.664,1.455,5.857,5.857,0,0,1-2.559,1.074c-1.1.211-2.529.386-4.3.538s-3.686.263-5.746.345-4.131.128-6.2.128S23251.281,9105.359,23249.553,9105.295Zm-29.26-1.67c-.168-.3-.5-.8-.98-1.519s-.977-1.455-1.484-2.208-.9-1.332-1.2-1.712a.461.461,0,0,1,0-.7c.088-.122.385-.187.889-.187h1.039a8.127,8.127,0,0,0,1.549-.192c.846-.164,1.729-.368,2.656-.6s1.875-.49,2.846-.788v-21.677h-4.615a21.185,21.185,0,0,0-3.41.315l-.51-2.716a22.029,22.029,0,0,0,3.855.5h4.68v-14.024a6.194,6.194,0,0,0-.445-2.974.679.679,0,0,1,0-.694.563.563,0,0,1,.631-.123,14.654,14.654,0,0,1,1.8.31c.74.175,1.477.351,2.213.537s1.338.351,1.8.479c.416.122.59.38.5.753,0,.38-.227.613-.7.7a7.183,7.183,0,0,0-1.295.251c-.439.129-.66.526-.66,1.2v13.587h3.346a.682.682,0,0,0,.637-.31c.252-.257.6-.625,1.041-1.109s.746-.812.916-.981a.753.753,0,0,1,1.2-.059,13.112,13.112,0,0,1,1.514,1.3q.885.85,1.453,1.419a1.023,1.023,0,0,1,.41,1.075.69.69,0,0,1-.725.566h-9.795v20.544q2.9-.946,5.525-1.928t4.334-1.741a.769.769,0,0,1,.566,1.14q-1.324.823-3.539,2.021t-4.773,2.529c-1.705.882-3.387,1.729-5.053,2.529s-3.148,1.472-4.457,2.021c-.42.169-.666.367-.729.6a2.194,2.194,0,0,0,.162,1.1.638.638,0,0,1-.256.888.961.961,0,0,1-.48.16A.54.54,0,0,1,23220.293,9103.625Z" transform="translate(-23216.469 -9051)" stroke="rgba(0,0,0,0)" stroke-miterlimit="10" stroke-width="1" fill="url(#linear-gradient)"/>
    </g>
    <path id="パス_44876" data-name="パス 44876" d="M24.564,132.991a43.087,43.087,0,0,1-8.911-.821,11.661,11.661,0,0,1-5.973-2.939A8.165,8.165,0,0,1,7.563,123.2a9.609,9.609,0,0,1,1.9-5.814,19.492,19.492,0,0,1,4.962-4.646,44.215,44.215,0,0,1,6.415-3.57,6.5,6.5,0,0,1-1.8-3.066,19.65,19.65,0,0,1-.6-5.466q0-1.2.094-3.287t.189-4.3q.1-2.212.158-3.73a7.461,7.461,0,0,0-.063-1.769,1.5,1.5,0,0,0-.758-1.01,1.739,1.739,0,0,0-.789-.223c-.316-.02-.6-.031-.854-.031h-.189a1.22,1.22,0,0,1-.286-.665.723.723,0,0,1,.223-.6,9.024,9.024,0,0,1,2.59-.284,15.632,15.632,0,0,1,2.464.221,4.643,4.643,0,0,1,3.255,1.77,2.089,2.089,0,0,1-.094,2.59,10.152,10.152,0,0,0-1.8,4.583,41.69,41.69,0,0,0-.286,11.25,5.8,5.8,0,0,0,1.075,2.939q2.464-1.01,4.74-1.77t3.918-1.326a7.114,7.114,0,0,1,2.338-.505,3.219,3.219,0,0,1,2.087,1.073q1.388,1.2,1.042,2.275t-2.18,1.391q-2.719.441-5.973,1.231a64.394,64.394,0,0,0-6.51,1.959,36.333,36.333,0,0,0-5.973,2.75,16.666,16.666,0,0,0-4.36,3.508A6.491,6.491,0,0,0,10.85,123a4.323,4.323,0,0,0,1.643,3.7,10.1,10.1,0,0,0,4.74,1.645,57.235,57.235,0,0,0,7.394.41,44.344,44.344,0,0,0,4.709-.284q2.62-.286,5.024-.7t3.792-.791a2.037,2.037,0,0,1,1.643.19q2.908,1.582,2.592,2.939t-2.527,1.864a24.53,24.53,0,0,1-3.036.444q-1.959.189-4.233.315t-4.425.19q-2.148.064-3.6.063" transform="translate(5.299 59.368)"/>
    <path id="パス_44877" data-name="パス 44877" d="M1.013,180.234a.856.856,0,0,1-.537-.505.732.732,0,0,1,.032-.7,49.628,49.628,0,0,0,5.087-2.843,69.358,69.358,0,0,0,5.689-4.013,61.463,61.463,0,0,0,5.4-4.74,30.492,30.492,0,0,0,4.172-5.025,3.826,3.826,0,0,0,.7-1.517c.041-.378.073-.673.094-.884a.649.649,0,0,1,.412-.505.749.749,0,0,1,.568.126q.571.38,1.675,1.3t2.245,1.8q1.135.885,1.643,1.328a.684.684,0,0,1,.126.947.661.661,0,0,1-.884.316,2.51,2.51,0,0,0-1.359-.253,2.587,2.587,0,0,0-1.485.758,58.937,58.937,0,0,1-5.246,4.362q-2.972,2.212-6.224,4.2T6.732,177.9a43.093,43.093,0,0,1-5.719,2.338m.126-22.246-.568-2.718a23.285,23.285,0,0,0,3.918.505h14.6v-15.1H7.712a21.3,21.3,0,0,0-3.349.315l-.57-2.718a22.144,22.144,0,0,0,3.918.505H19.087v-8.91a19.344,19.344,0,0,0-.189-3.034,5.15,5.15,0,0,0-.568-1.77.537.537,0,0,1,0-.7.723.723,0,0,1,.631-.126q.7.128,1.991.412l2.592.568q1.293.286,1.99.474c.42.126.59.379.505.758a.624.624,0,0,1-.694.631,6.521,6.521,0,0,0-1.328.286q-.7.222-.7,1.168v10.238H35.078v-8.91q0-3.666-.7-4.8a.461.461,0,0,1,0-.7c.083-.167.274-.209.568-.126q.694.128,1.991.412t2.622.568q1.326.286,2.022.474a.738.738,0,0,1,.507.758.625.625,0,0,1-.7.631,5.986,5.986,0,0,0-1.359.286c-.444.148-.663.537-.663,1.168v10.238h6.571a1.1,1.1,0,0,0,.886-.378q.378-.508,1.168-1.517c.527-.673.895-1.138,1.107-1.391a.752.752,0,0,1,1.2-.063,12.9,12.9,0,0,1,1.359,1.042q.852.727,1.673,1.454t1.2,1.105a1,1,0,0,1,.442,1.044.661.661,0,0,1-.7.6H39.376v15.1h9.289a.941.941,0,0,0,.7-.252l2.845-2.908a.737.737,0,0,1,1.136-.063q.885.633,2.182,1.769a24.542,24.542,0,0,1,1.864,1.77,1.02,1.02,0,0,1,.347,1.042.651.651,0,0,1-.663.537H4.489a21.061,21.061,0,0,0-3.35.316m22.183-2.213H35.078V140.671H23.322Zm29.452,23.132q-1.2.505-2.655-1.58a42.375,42.375,0,0,0-4.709-5.752,58.812,58.812,0,0,0-5.782-5.246,34.742,34.742,0,0,0-5.94-3.855,1.04,1.04,0,0,1,.031-.757.681.681,0,0,1,.537-.444q2.467.76,5.372,1.961a58.6,58.6,0,0,1,5.689,2.716,36.059,36.059,0,0,1,4.993,3.255,16.2,16.2,0,0,1,3.413,3.508,4.419,4.419,0,0,1,.821,2.527,4.976,4.976,0,0,1-.507,2.308,2.97,2.97,0,0,1-1.264,1.359" transform="translate(0.283 87.017)"/>
    <path id="パス_44878" data-name="パス 44878" d="M12.938,212.408a2.577,2.577,0,0,1-1.61.442,2.978,2.978,0,0,1-1.866-.633,12.385,12.385,0,0,1-3.728-5.056q-1.518-3.413-1.515-9.542a49.5,49.5,0,0,1,.5-7.459q.505-3.286,1.2-6t1.2-5.151a23.91,23.91,0,0,0,.507-4.9,5.823,5.823,0,0,0-.57-2.527,11.548,11.548,0,0,0-1.138-1.961.992.992,0,0,1,.284-.726.733.733,0,0,1,.665-.221,12.319,12.319,0,0,1,3.476,3,6.756,6.756,0,0,1,1.643,4.393,11.245,11.245,0,0,1-.663,3.729q-.663,1.9-1.58,4.265a35.265,35.265,0,0,0-1.58,5.593A38.3,38.3,0,0,0,7.5,197.3a16.647,16.647,0,0,0,.349,3.633,9.447,9.447,0,0,0,.917,2.561c.209.378.432.548.663.505s.389-.253.474-.633q.63-1.9,1.485-4.36t1.643-4.677q.791-2.212,1.233-3.35c.631-.293,1.031-.126,1.2.507q-.316,1.265-.949,3.476t-1.2,4.928a47.777,47.777,0,0,0-.821,5.563,5.125,5.125,0,0,0,.128,1.769,10.9,10.9,0,0,0,.947,1.833,2.267,2.267,0,0,1,.316,1.864,2.547,2.547,0,0,1-.949,1.486m23.828-2.656a23.474,23.474,0,0,1-8.153-1.136,8.968,8.968,0,0,1-4.425-3.318A14.7,14.7,0,0,1,22.1,200.02a1.061,1.061,0,0,1,.633-.474.622.622,0,0,1,.631.158,8.8,8.8,0,0,0,2.718,3.539,9.563,9.563,0,0,0,4.172,1.612,39.958,39.958,0,0,0,6.257.41,42.226,42.226,0,0,0,5.34-.316,44.265,44.265,0,0,0,4.646-.821,2.527,2.527,0,0,1,.917-.063,2.053,2.053,0,0,1,.6.253.176.176,0,0,0,.126.063,3.363,3.363,0,0,1,2.117,2.529q.158,1.515-1.8,1.832a60.062,60.062,0,0,1-11.692,1.01m-2.655-30.967a16.306,16.306,0,0,1-6.7-.949,9.542,9.542,0,0,1-4.235-3.411.918.918,0,0,1,1.01-.884,6.773,6.773,0,0,0,3.6,1.294,25.163,25.163,0,0,0,5.214.032q2.811-.253,5.308-.726a23.649,23.649,0,0,0,3.823-.981,3.2,3.2,0,0,1,1.833-.094,3.8,3.8,0,0,1,1.9,1.294q1.451,1.457,1.042,2.213t-2.5,1.2q-1.39.255-4.265.57t-6.036.442" transform="translate(2.956 118.17)"/>
    <path id="パス_44879" data-name="パス 44879" d="M31.9,225.256a8.881,8.881,0,0,1-4.644-1.265,9.6,9.6,0,0,1-3.383-3.381,9.009,9.009,0,0,1-1.264-4.707,8.85,8.85,0,0,1,1.264-4.677,9.712,9.712,0,0,1,3.383-3.35,8.9,8.9,0,0,1,4.644-1.264,9.024,9.024,0,0,1,4.709,1.264,9.722,9.722,0,0,1,3.381,3.35,8.85,8.85,0,0,1,1.264,4.677,9.009,9.009,0,0,1-1.264,4.707,9.609,9.609,0,0,1-3.381,3.381,9.009,9.009,0,0,1-4.709,1.265m0-2.655a6.9,6.9,0,0,0,4.9-1.928,6.28,6.28,0,0,0,2.054-4.77,6.215,6.215,0,0,0-2.054-4.709,6.913,6.913,0,0,0-4.9-1.927,6.838,6.838,0,0,0-4.835,1.927,6.215,6.215,0,0,0-2.054,4.709,6.28,6.28,0,0,0,2.054,4.77A6.825,6.825,0,0,0,31.9,222.6" transform="translate(15.844 144.759)"/>
  </g>
</svg>
